<mxfile host="app.diagrams.net" agent="Mozilla/5.0 (Windows NT 10.0; Win64; x64) AppleWebKit/537.36 (KHTML, like Gecko) Chrome/134.0.0.0 Safari/537.36" version="26.1.1">
  <diagram name="Página-1" id="a3dnvV7rcngzJNPm4oMn">
    <mxGraphModel dx="1875" dy="1592" grid="1" gridSize="10" guides="1" tooltips="1" connect="1" arrows="1" fold="1" page="1" pageScale="1" pageWidth="827" pageHeight="1169" math="0" shadow="0">
      <root>
        <mxCell id="0" />
        <mxCell id="1" parent="0" />
        <mxCell id="yif7cwP6_f5OZigfxxrv-49" value="" style="rounded=1;whiteSpace=wrap;html=1;fillColor=#dae8fc;strokeColor=#6c8ebf;" parent="1" vertex="1">
          <mxGeometry x="-210" y="256" width="560" height="433" as="geometry" />
        </mxCell>
        <mxCell id="yif7cwP6_f5OZigfxxrv-47" value="" style="rounded=1;whiteSpace=wrap;html=1;fillColor=#f8cecc;strokeColor=#b85450;" parent="1" vertex="1">
          <mxGeometry x="-55" y="-169" width="950" height="350" as="geometry" />
        </mxCell>
        <mxCell id="eaopw1OA4tHI7iTekrfp-8" style="edgeStyle=none;shape=connector;rounded=0;orthogonalLoop=1;jettySize=auto;html=1;strokeColor=default;align=center;verticalAlign=middle;fontFamily=Helvetica;fontSize=11;fontColor=default;labelBackgroundColor=default;endArrow=none;endFill=0;exitX=1;exitY=0.3333333333333333;exitDx=0;exitDy=0;exitPerimeter=0;" parent="1" source="eaopw1OA4tHI7iTekrfp-1" target="eaopw1OA4tHI7iTekrfp-5" edge="1">
          <mxGeometry relative="1" as="geometry" />
        </mxCell>
        <mxCell id="eaopw1OA4tHI7iTekrfp-1" value="Jogador" style="shape=umlActor;verticalLabelPosition=bottom;verticalAlign=top;html=1;outlineConnect=0;" parent="1" vertex="1">
          <mxGeometry x="60" y="89" width="30" height="60" as="geometry" />
        </mxCell>
        <mxCell id="eaopw1OA4tHI7iTekrfp-2" value="Demais aplicações" style="shape=umlActor;verticalLabelPosition=bottom;verticalAlign=top;html=1;" parent="1" vertex="1">
          <mxGeometry x="780" y="-130" width="30" height="60" as="geometry" />
        </mxCell>
        <mxCell id="eaopw1OA4tHI7iTekrfp-3" value="Cadastro de jogador" style="ellipse;whiteSpace=wrap;html=1;" parent="1" vertex="1">
          <mxGeometry x="264" y="-100" width="100" height="50" as="geometry" />
        </mxCell>
        <mxCell id="eaopw1OA4tHI7iTekrfp-5" value="Login de jogador" style="ellipse;whiteSpace=wrap;html=1;" parent="1" vertex="1">
          <mxGeometry x="164" y="20" width="100" height="50" as="geometry" />
        </mxCell>
        <mxCell id="eaopw1OA4tHI7iTekrfp-21" value="&amp;lt;&amp;lt;extends&amp;gt;&amp;gt;" style="endArrow=open;endSize=12;dashed=1;html=1;rounded=0;strokeColor=default;align=center;verticalAlign=middle;fontFamily=Helvetica;fontSize=11;fontColor=default;labelBackgroundColor=default;" parent="1" source="eaopw1OA4tHI7iTekrfp-3" target="eaopw1OA4tHI7iTekrfp-5" edge="1">
          <mxGeometry x="-0.0909" width="160" relative="1" as="geometry">
            <mxPoint x="478" y="184" as="sourcePoint" />
            <mxPoint x="290" y="110" as="targetPoint" />
            <mxPoint as="offset" />
          </mxGeometry>
        </mxCell>
        <mxCell id="eaopw1OA4tHI7iTekrfp-42" value="Autenticação" style="shape=umlFrame;whiteSpace=wrap;html=1;pointerEvents=0;fontFamily=Helvetica;fontSize=11;fontColor=default;labelBackgroundColor=default;width=106;height=20;" parent="1" vertex="1">
          <mxGeometry x="150" y="-140" width="570" height="290" as="geometry" />
        </mxCell>
        <mxCell id="DGh_F-wEEUSYSohnh4VO-1" value="Detalhes do jogador" style="ellipse;whiteSpace=wrap;html=1;" parent="1" vertex="1">
          <mxGeometry x="364" y="20" width="100" height="50" as="geometry" />
        </mxCell>
        <mxCell id="DGh_F-wEEUSYSohnh4VO-2" value="Excluir dados" style="ellipse;whiteSpace=wrap;html=1;" parent="1" vertex="1">
          <mxGeometry x="610" y="85" width="100" height="50" as="geometry" />
        </mxCell>
        <mxCell id="DGh_F-wEEUSYSohnh4VO-4" value="&amp;lt;&amp;lt;includes&amp;gt;&amp;gt;" style="endArrow=open;endSize=12;dashed=1;html=1;rounded=0;strokeColor=default;align=center;verticalAlign=middle;fontFamily=Helvetica;fontSize=11;fontColor=default;labelBackgroundColor=default;exitX=0;exitY=0.5;exitDx=0;exitDy=0;entryX=0.941;entryY=0.667;entryDx=0;entryDy=0;entryPerimeter=0;" parent="1" source="DGh_F-wEEUSYSohnh4VO-1" target="eaopw1OA4tHI7iTekrfp-5" edge="1">
          <mxGeometry x="-0.0909" width="160" relative="1" as="geometry">
            <mxPoint x="410" y="-15" as="sourcePoint" />
            <mxPoint x="268" y="-30" as="targetPoint" />
            <mxPoint as="offset" />
          </mxGeometry>
        </mxCell>
        <mxCell id="DGh_F-wEEUSYSohnh4VO-5" value="&amp;lt;&amp;lt;extends&amp;gt;&amp;gt;" style="endArrow=open;endSize=12;dashed=1;html=1;rounded=0;strokeColor=default;align=center;verticalAlign=middle;fontFamily=Helvetica;fontSize=11;fontColor=default;labelBackgroundColor=default;exitX=0.366;exitY=0.029;exitDx=0;exitDy=0;entryX=1;entryY=0.5;entryDx=0;entryDy=0;exitPerimeter=0;" parent="1" source="DGh_F-wEEUSYSohnh4VO-6" target="DGh_F-wEEUSYSohnh4VO-1" edge="1">
          <mxGeometry x="-0.2777" y="-1" width="160" relative="1" as="geometry">
            <mxPoint x="552" y="-30" as="sourcePoint" />
            <mxPoint x="430" y="-5" as="targetPoint" />
            <mxPoint as="offset" />
          </mxGeometry>
        </mxCell>
        <mxCell id="DGh_F-wEEUSYSohnh4VO-6" value="Alterar dados do jogador" style="ellipse;whiteSpace=wrap;html=1;" parent="1" vertex="1">
          <mxGeometry x="610" width="100" height="50" as="geometry" />
        </mxCell>
        <mxCell id="DGh_F-wEEUSYSohnh4VO-13" value="BD" style="shape=umlActor;verticalLabelPosition=bottom;verticalAlign=top;html=1;" parent="1" vertex="1">
          <mxGeometry x="789" y="-5" width="30" height="60" as="geometry" />
        </mxCell>
        <mxCell id="DGh_F-wEEUSYSohnh4VO-14" style="edgeStyle=none;shape=connector;rounded=0;orthogonalLoop=1;jettySize=auto;html=1;strokeColor=default;align=center;verticalAlign=middle;fontFamily=Helvetica;fontSize=11;fontColor=default;labelBackgroundColor=default;endArrow=none;endFill=0;exitX=1;exitY=0;exitDx=0;exitDy=0;" parent="1" source="DGh_F-wEEUSYSohnh4VO-1" target="eaopw1OA4tHI7iTekrfp-2" edge="1">
          <mxGeometry relative="1" as="geometry">
            <mxPoint x="290" y="-36" as="sourcePoint" />
            <mxPoint x="714" y="-50" as="targetPoint" />
            <Array as="points" />
          </mxGeometry>
        </mxCell>
        <mxCell id="DGh_F-wEEUSYSohnh4VO-15" style="edgeStyle=none;shape=connector;rounded=0;orthogonalLoop=1;jettySize=auto;html=1;strokeColor=default;align=center;verticalAlign=middle;fontFamily=Helvetica;fontSize=11;fontColor=default;labelBackgroundColor=default;endArrow=none;endFill=0;exitX=0.5;exitY=0.5;exitDx=0;exitDy=0;exitPerimeter=0;entryX=1.008;entryY=0.576;entryDx=0;entryDy=0;entryPerimeter=0;" parent="1" source="DGh_F-wEEUSYSohnh4VO-13" target="eaopw1OA4tHI7iTekrfp-42" edge="1">
          <mxGeometry relative="1" as="geometry">
            <mxPoint x="798" y="85" as="sourcePoint" />
            <mxPoint x="720" y="63" as="targetPoint" />
          </mxGeometry>
        </mxCell>
        <mxCell id="yif7cwP6_f5OZigfxxrv-1" value="&amp;lt;&amp;lt;extends&amp;gt;&amp;gt;" style="endArrow=open;endSize=12;dashed=1;html=1;rounded=0;strokeColor=default;align=center;verticalAlign=middle;fontFamily=Helvetica;fontSize=11;fontColor=default;labelBackgroundColor=default;exitX=0.275;exitY=0.067;exitDx=0;exitDy=0;entryX=1;entryY=1;entryDx=0;entryDy=0;exitPerimeter=0;" parent="1" source="DGh_F-wEEUSYSohnh4VO-2" target="DGh_F-wEEUSYSohnh4VO-1" edge="1">
          <mxGeometry x="-0.2777" y="-1" width="160" relative="1" as="geometry">
            <mxPoint x="520" y="51" as="sourcePoint" />
            <mxPoint x="453" y="-30" as="targetPoint" />
            <mxPoint as="offset" />
          </mxGeometry>
        </mxCell>
        <mxCell id="yif7cwP6_f5OZigfxxrv-15" value="Jogador" style="shape=umlActor;verticalLabelPosition=bottom;verticalAlign=top;html=1;outlineConnect=0;" parent="1" vertex="1">
          <mxGeometry x="379" y="321" width="30" height="60" as="geometry" />
        </mxCell>
        <mxCell id="yif7cwP6_f5OZigfxxrv-16" value="Tela de Login" style="shape=umlBoundary;whiteSpace=wrap;html=1;" parent="1" vertex="1">
          <mxGeometry x="549" y="311" width="100" height="80" as="geometry" />
        </mxCell>
        <mxCell id="yif7cwP6_f5OZigfxxrv-17" value="Login Control" style="ellipse;shape=umlControl;whiteSpace=wrap;html=1;" parent="1" vertex="1">
          <mxGeometry x="759" y="311" width="70" height="80" as="geometry" />
        </mxCell>
        <mxCell id="yif7cwP6_f5OZigfxxrv-18" value="Jogador" style="ellipse;shape=umlEntity;whiteSpace=wrap;html=1;" parent="1" vertex="1">
          <mxGeometry x="939" y="316" width="70" height="70" as="geometry" />
        </mxCell>
        <mxCell id="yif7cwP6_f5OZigfxxrv-19" value="Tela de Cadastro" style="shape=umlBoundary;whiteSpace=wrap;html=1;" parent="1" vertex="1">
          <mxGeometry x="669" y="461" width="100" height="80" as="geometry" />
        </mxCell>
        <mxCell id="yif7cwP6_f5OZigfxxrv-20" value="" style="endArrow=none;html=1;rounded=0;entryX=-0.023;entryY=0.487;entryDx=0;entryDy=0;entryPerimeter=0;exitX=0.5;exitY=0.5;exitDx=0;exitDy=0;exitPerimeter=0;" parent="1" source="yif7cwP6_f5OZigfxxrv-15" target="yif7cwP6_f5OZigfxxrv-16" edge="1">
          <mxGeometry relative="1" as="geometry">
            <mxPoint x="449" y="361" as="sourcePoint" />
            <mxPoint x="609" y="361" as="targetPoint" />
          </mxGeometry>
        </mxCell>
        <mxCell id="yif7cwP6_f5OZigfxxrv-21" value="" style="endArrow=none;html=1;rounded=0;entryX=-0.024;entryY=0.562;entryDx=0;entryDy=0;entryPerimeter=0;exitX=1.01;exitY=0.529;exitDx=0;exitDy=0;exitPerimeter=0;" parent="1" source="yif7cwP6_f5OZigfxxrv-16" target="yif7cwP6_f5OZigfxxrv-17" edge="1">
          <mxGeometry relative="1" as="geometry">
            <mxPoint x="650" y="351.5" as="sourcePoint" />
            <mxPoint x="749" y="350" as="targetPoint" />
          </mxGeometry>
        </mxCell>
        <mxCell id="yif7cwP6_f5OZigfxxrv-22" value="" style="endArrow=none;html=1;rounded=0;entryX=0;entryY=0.5;entryDx=0;entryDy=0;exitX=0.986;exitY=0.496;exitDx=0;exitDy=0;exitPerimeter=0;" parent="1" source="yif7cwP6_f5OZigfxxrv-17" target="yif7cwP6_f5OZigfxxrv-18" edge="1">
          <mxGeometry relative="1" as="geometry">
            <mxPoint x="829" y="351.08000000000004" as="sourcePoint" />
            <mxPoint x="936" y="350.58000000000004" as="targetPoint" />
          </mxGeometry>
        </mxCell>
        <mxCell id="yif7cwP6_f5OZigfxxrv-23" value="" style="endArrow=none;html=1;rounded=0;entryX=-0.037;entryY=0.521;entryDx=0;entryDy=0;entryPerimeter=0;exitX=0.59;exitY=1.046;exitDx=0;exitDy=0;exitPerimeter=0;" parent="1" source="yif7cwP6_f5OZigfxxrv-16" target="yif7cwP6_f5OZigfxxrv-19" edge="1">
          <mxGeometry relative="1" as="geometry">
            <mxPoint x="599" y="421" as="sourcePoint" />
            <mxPoint x="716" y="391" as="targetPoint" />
          </mxGeometry>
        </mxCell>
        <mxCell id="yif7cwP6_f5OZigfxxrv-24" value="Register Control" style="ellipse;shape=umlControl;whiteSpace=wrap;html=1;" parent="1" vertex="1">
          <mxGeometry x="847" y="461" width="70" height="80" as="geometry" />
        </mxCell>
        <mxCell id="yif7cwP6_f5OZigfxxrv-25" value="" style="endArrow=none;html=1;rounded=0;entryX=-0.005;entryY=0.504;entryDx=0;entryDy=0;exitX=1.01;exitY=0.504;exitDx=0;exitDy=0;exitPerimeter=0;entryPerimeter=0;" parent="1" source="yif7cwP6_f5OZigfxxrv-19" target="yif7cwP6_f5OZigfxxrv-24" edge="1">
          <mxGeometry relative="1" as="geometry">
            <mxPoint x="789" y="500.5799999999999" as="sourcePoint" />
            <mxPoint x="900" y="500.5799999999999" as="targetPoint" />
          </mxGeometry>
        </mxCell>
        <mxCell id="yif7cwP6_f5OZigfxxrv-26" value="" style="endArrow=none;html=1;rounded=0;entryX=0.5;entryY=1;entryDx=0;entryDy=0;exitX=1.029;exitY=0.625;exitDx=0;exitDy=0;exitPerimeter=0;" parent="1" source="yif7cwP6_f5OZigfxxrv-24" target="yif7cwP6_f5OZigfxxrv-18" edge="1">
          <mxGeometry relative="1" as="geometry">
            <mxPoint x="939" y="511" as="sourcePoint" />
            <mxPoint x="1016" y="511" as="targetPoint" />
          </mxGeometry>
        </mxCell>
        <mxCell id="yif7cwP6_f5OZigfxxrv-50" value="&lt;font style=&quot;font-size: 18px;&quot;&gt;&lt;b&gt;Diagrama de caso de uso&lt;/b&gt;&lt;/font&gt;" style="text;html=1;align=center;verticalAlign=middle;resizable=0;points=[];autosize=1;strokeColor=none;fillColor=none;" parent="1" vertex="1">
          <mxGeometry x="-50" y="-200" width="240" height="40" as="geometry" />
        </mxCell>
        <mxCell id="yif7cwP6_f5OZigfxxrv-51" value="&lt;font style=&quot;font-size: 18px;&quot;&gt;&lt;b&gt;Diagrama de classes&lt;/b&gt;&lt;/font&gt;" style="text;html=1;align=center;verticalAlign=middle;resizable=0;points=[];autosize=1;strokeColor=none;fillColor=none;" parent="1" vertex="1">
          <mxGeometry x="-50" y="220" width="200" height="40" as="geometry" />
        </mxCell>
        <mxCell id="yif7cwP6_f5OZigfxxrv-52" value="&lt;font style=&quot;font-size: 18px;&quot;&gt;&lt;b&gt;Diagramas complementares&lt;/b&gt;&lt;/font&gt;" style="text;html=1;align=center;verticalAlign=middle;resizable=0;points=[];autosize=1;strokeColor=none;fillColor=none;" parent="1" vertex="1">
          <mxGeometry x="370" y="217" width="260" height="40" as="geometry" />
        </mxCell>
        <mxCell id="yif7cwP6_f5OZigfxxrv-53" value="Notificação de jogador criado" style="ellipse;whiteSpace=wrap;html=1;" parent="1" vertex="1">
          <mxGeometry x="490" y="-120" width="100" height="50" as="geometry" />
        </mxCell>
        <mxCell id="yif7cwP6_f5OZigfxxrv-55" value="&amp;lt;&amp;lt;includes&amp;gt;&amp;gt;" style="endArrow=open;endSize=12;dashed=1;html=1;rounded=0;strokeColor=default;align=center;verticalAlign=middle;fontFamily=Helvetica;fontSize=11;fontColor=default;labelBackgroundColor=default;exitX=0.024;exitY=0.684;exitDx=0;exitDy=0;exitPerimeter=0;entryX=1;entryY=0.5;entryDx=0;entryDy=0;" parent="1" source="yif7cwP6_f5OZigfxxrv-53" target="eaopw1OA4tHI7iTekrfp-3" edge="1">
          <mxGeometry x="-0.0909" width="160" relative="1" as="geometry">
            <mxPoint x="412" y="102.5" as="sourcePoint" />
            <mxPoint x="290" y="97.5" as="targetPoint" />
            <mxPoint as="offset" />
          </mxGeometry>
        </mxCell>
        <mxCell id="yif7cwP6_f5OZigfxxrv-56" style="edgeStyle=none;shape=connector;rounded=0;orthogonalLoop=1;jettySize=auto;html=1;strokeColor=default;align=center;verticalAlign=middle;fontFamily=Helvetica;fontSize=11;fontColor=default;labelBackgroundColor=default;endArrow=none;endFill=0;exitX=1;exitY=0.5;exitDx=0;exitDy=0;entryX=0;entryY=0.3333333333333333;entryDx=0;entryDy=0;entryPerimeter=0;" parent="1" source="yif7cwP6_f5OZigfxxrv-53" target="eaopw1OA4tHI7iTekrfp-2" edge="1">
          <mxGeometry relative="1" as="geometry">
            <mxPoint x="459" y="47" as="sourcePoint" />
            <mxPoint x="720" y="-110" as="targetPoint" />
            <Array as="points" />
          </mxGeometry>
        </mxCell>
        <mxCell id="yif7cwP6_f5OZigfxxrv-60" style="edgeStyle=none;shape=connector;rounded=0;orthogonalLoop=1;jettySize=auto;html=1;strokeColor=default;align=center;verticalAlign=middle;fontFamily=Helvetica;fontSize=11;fontColor=default;labelBackgroundColor=default;endArrow=none;endFill=0;entryX=-0.008;entryY=0.666;entryDx=0;entryDy=0;entryPerimeter=0;exitX=0.5;exitY=0;exitDx=0;exitDy=0;exitPerimeter=0;" parent="1" source="eaopw1OA4tHI7iTekrfp-1" target="eaopw1OA4tHI7iTekrfp-3" edge="1">
          <mxGeometry relative="1" as="geometry">
            <mxPoint x="81" y="73" as="sourcePoint" />
            <mxPoint x="180" y="37" as="targetPoint" />
          </mxGeometry>
        </mxCell>
        <mxCell id="yif7cwP6_f5OZigfxxrv-61" style="edgeStyle=none;shape=connector;rounded=0;orthogonalLoop=1;jettySize=auto;html=1;strokeColor=default;align=center;verticalAlign=middle;fontFamily=Helvetica;fontSize=11;fontColor=default;labelBackgroundColor=default;endArrow=none;endFill=0;entryX=0;entryY=1;entryDx=0;entryDy=0;exitX=0.5;exitY=0.5;exitDx=0;exitDy=0;exitPerimeter=0;" parent="1" source="eaopw1OA4tHI7iTekrfp-1" target="DGh_F-wEEUSYSohnh4VO-1" edge="1">
          <mxGeometry relative="1" as="geometry">
            <mxPoint x="100" y="137" as="sourcePoint" />
            <mxPoint x="199" y="101" as="targetPoint" />
          </mxGeometry>
        </mxCell>
        <mxCell id="yif7cwP6_f5OZigfxxrv-62" style="edgeStyle=none;shape=connector;rounded=0;orthogonalLoop=1;jettySize=auto;html=1;strokeColor=default;align=center;verticalAlign=middle;fontFamily=Helvetica;fontSize=11;fontColor=default;labelBackgroundColor=default;endArrow=none;endFill=0;entryX=-0.005;entryY=0.702;entryDx=0;entryDy=0;entryPerimeter=0;exitX=1;exitY=1;exitDx=0;exitDy=0;exitPerimeter=0;" parent="1" source="eaopw1OA4tHI7iTekrfp-1" target="DGh_F-wEEUSYSohnh4VO-6" edge="1">
          <mxGeometry relative="1" as="geometry">
            <mxPoint x="106" y="156" as="sourcePoint" />
            <mxPoint x="205" y="120" as="targetPoint" />
          </mxGeometry>
        </mxCell>
        <mxCell id="yif7cwP6_f5OZigfxxrv-63" style="edgeStyle=none;shape=connector;rounded=0;orthogonalLoop=1;jettySize=auto;html=1;strokeColor=default;align=center;verticalAlign=middle;fontFamily=Helvetica;fontSize=11;fontColor=default;labelBackgroundColor=default;endArrow=none;endFill=0;entryX=0;entryY=0.5;entryDx=0;entryDy=0;exitX=1;exitY=1;exitDx=0;exitDy=0;exitPerimeter=0;" parent="1" source="eaopw1OA4tHI7iTekrfp-1" target="DGh_F-wEEUSYSohnh4VO-2" edge="1">
          <mxGeometry relative="1" as="geometry">
            <mxPoint x="120.5" y="169.9" as="sourcePoint" />
            <mxPoint x="590" y="119.99999999999991" as="targetPoint" />
          </mxGeometry>
        </mxCell>
        <mxCell id="DupR3e6StY-6f0B1ohxb-1" value="" style="shape=image;verticalLabelPosition=bottom;labelBackgroundColor=default;verticalAlign=top;aspect=fixed;imageAspect=0;image=data:image/png,iVBORw0KGgoAAAANSUhEUgAAAlgAAAG9CAYAAADJBwhwAAAAAXNSR0IArs4c6QAAAARnQU1BAACxjwv8YQUAAAAJcEhZcwAADsMAAA7DAcdvqGQAAKQbSURBVHhe7N1/XFvV/T/wV9XaRltjgxpkNYIa1BmlVZgRJl8nuEwnxaKy2M7ZKDg3bGFWw1ocatcUG4vCOrYqTHCuNstWKsNfsTArCr2VzLYapzYqGBFJlbhUa2yt7fcPOfeTe3ITAoTy6/18PPp4lHPOvbn3npt73znn3HOnHTly5AgIIYQQQkjMHMMnEEIIIYSQkaEAixBCCCEkxqZRF+Ho+ec//4ldu3bh0KFDfBYhhJAhmjZtGi688EIsWrSIzyJk3KEAa5QUFxfj0ksvhcFgwHHHHcdnE0IIGaIjR47gpZdewosvvog//OEPmD59Ol+EkHGDAqxR8MQTT2DWrFm46qqr+CxCCCEj9Prrr8PpdOLuu+/mswgZN2gM1ijYuXMnBVeEEDJKLr74Yrz//vt8MiHjCgVYo+Dw4cN8EiGEkBiizhcy3lGARQghhBASYzQGaxQsW7YMq1ev5pPJFPfBBx9g586d6OrqwqeffYZDh77BiSeciO9973s477zz8IMf/AAKhYJfjBAiw2w2Y8OGDXwyIeMGtWARMoq++eYbNDzRgJzcHFx99dV4uPphCLt2wLvfi8+/9aNrbzf+9UIzfv3rX2PevHlYVrIMgiDwqyGEEDLBUAvWKKAWLAIAmzdvxsNVj+Dw4W+h/0kGLs68BKefmcAXAwAcOXwEb+54A6+/1InOl19D1lVZMN9tRmJiIl+UEEItWGQCoBYsQkbBPaVmrFy5EpddnYHfb3wQP705J2xwBQDTjpmGiy5LwZKVBShdX4a9//sUCxYswLPPPssXJYQQMgFQgEVIDH3zzTe4xXQLOp2vYfkjpfjJomv4IoPSJJ+JO1bfiex8A+666y5s2rSJL0IIIWScowCLkBhaWrwUn3g/wZ1rS3DW98/ms4fkmp9fi5/duQj3338/tWQRQsgEQwEWITFSvb4ar732Gm5ZcRtOPmUOnz0smTlX4Kc3L8CKFSvw4Ycf8tmEEELGKQqwCImBt99+G3/6459w46+NUJ8Rz2ePyDU/vxbaC5Ox9iErn0UIIWScogCLkBh4rPYxpOjnI+3KS/ksWV/6v4D7zT3o937GZ8m6+hfXonVrC3bs2MFnEUIIGYcowCJkhHp6evDcs8/h8gX/j88K8e+nW3DXjctwS+Zi/Pbnd+P2H98K0xU347HVf8YdPylAU0MjvwgAIPHcJKRenoanbDTgnRBCJgIKsAgZoa1btyJBk4DzL/k+nyXRsO5x1Nz3B3y4pxvTpk1D0nln4eRT5mDf5344/vE8Pv1kL95yuvjFRJdcmYYXX3Dg66+/5rMiCgQCKCkpQUlJCQKBAJ89aP5YstvtyMvLg8/n47MIIWRcowCLkBF6pf1VnDtIcNXueAXNTz6NadOmYdGdP0dD20as+3sV/tL6BNb/68+IHxi39e234V8UfsGlF2LatGno7Ozksyat/Px8NDY2QqVS8VmEEDKuUYBFyAi98/bbODP5TD5Zwr7BBgC46c6f4/rCfMw6aZaYl3Dm93Cd6XoAwPEzpovpvGOPPRZnahPxzjvv8FmEEELGGQqwCBmBAwcOoP+zfsSpT+GzRN6ePvR88BGmHz8d1/58AZ8NAEj/8Q+RdsUPcOMvjXyWhEqtQm9vL588KqxWK5RKpfgvuAuRdStardInGwVBgFKpDHmfIr8uvttPEATk5eWhpqZGLCMIgmwXIfsMue0ihJDxggIsQkbgq6++AgDMPHEmnyXy9ngBAHHxp2DGzBl8NgDgxNkn4rfV9+Ks8yNPTjrjhBnYv38/nxxzVqsVgiCgq6sLfr8ffX19AID169fzRQdltVrR29uLvr4+cV0ajQarVq2SBEatra1wu91iOb1eL1kPBsZkGQwGOBwOyXYtXryYxmkRQsYVCrAIGYHjjjsOAPDtoW/5LNHBAwcAANOnh+/+i9ahb76NyXoiCQQC6O3thV6vF8c+KRQKVFVVwWw288UjcrvdaGpqgtFohEKhAAbWZTQa0dnZiZ6eHkn54HI8n88Hm82G2tpaMfhSKBQoKiqC1+tFS0sLvwghhIwZCrAIGYHZs2djxowZ+F////gs0QzFd61bX381tKf/5Oz/35eIi4vjk2NKoVAgPT0dFosFGRkZcLvdfJGoabVatLe3Q6/Xi92KSqUSBoOBLwqdThdx3/r7++H1eqHRaCTpc+fORVpaGrq7uyXphBAylijAImSEzjrnLHz8gbQlJtjpmgQAwKef7MWX/i/47CHp7f4YZ58duRsxFvLz8+F0OgEAqampUCqVww622Pir+Ph4eDwedHV1weFw8MUG1d/fD5cr/DQWhBAynlCARcgIXXJJKrpc7/PJolPiT8H5F18AAKhe+TAOfP1dl2Gwbw99i8dW/xlPVD7OZ4l63v8Ivs98mDdvHp8VkUKhQELCd0GenEAgAI/Hg4SEBEn3HGt98vv96OrqglqtxpIlS4YUZAmCAIvFIo6ZGsmUC3FxcdDpdHwyIYSMSxRgETJCWT+6Ei7nm/BH6Ca8qWgxAOD1V/+DO6/9JTbX2rF9azvecr6JV194BeW3rYTjH8/DYX8eRw4f4RcHALze5sT5F5yPM8+MPCWEnMTERNkxTwjqesvMzOSzRCqVCmazGS6XC/39/Xy2yOPxhPwt1/XX1tYm+TsacXFxUKvVIcv29PSgs7MTiYmJknRCCBlLFGARMkLp6ek4W3s2Xml+mc8SXZCqwx2/K8JJJ58E36c+PPXHv2Hd3WtRflsZHil9CO/sehsAcPu9v8K0Y6bxi+Pw4cPY8eJ23HD9DXxWVHJycpCWlobS0lLJ03Y+nw+lpaVIS0tDSkoKEGFm97a2NmRlZSE5OVkcp9XU1CS2aLndblRXV4vlAUCj0cDlcmHnzp1iGmvVGiqVSgWj0QiLxSJOAxEIBFBTUwO1Wo3s7Gx+EUIIGTMUYBESA7eZbsOL9hfw2Sef8lmiq24woO7fT+C+R3+Pny7KwdyzzsCJs0/EBakX4lZzIf7S+gSuyLmSXwwA8PzfnsHMGTPx88U/57Oiwp4C1Ov1SEpKEueQSkpKgtFoRFVVleQpv4qKCgBAfHy8ZF6quro6sYsvPz8fubm54hit0tJSVFZWSrrx9Ho9HA4HCgsLxfXYbDa8+uqrACAJvKKRn58Ph8MBg8EgjutKSEgYUdcjIYSMhmlHjhyR748gw7Zs2TKsXr2aTyaT3M233IxvjjmEgvvu4LNGxP3GHlTdsw4PPfQQFiyQn6iUkKnGbDZjw4YNfDIh4wa1YBESIw/c9wD2vPEunq5r5LOG7bNPPsXGyr/i+vwbKLgihJAJhAIsQmLkrLPOQtUjVdj6jxfw9GOb+ewh+/iDHjxa/iecf955WPP7oY9ZIoQQMnYowCIkhjIzM1FbW4vtjnbU3v9nfPrxXr5IVLY72vHwXVbovn8Bah+t5bMJIYSMcxRgERJjmZmZ2Lx5M2ZOm4FVBeVofvxpfL43uvfkuV57E38uW4+/PfwE7rjjDqyvHvq7/wghhIw9GuQ+CmiQO2Gefvpp/KX+L9jzzh5ccLEOSReeje8lfg8nqZQ4bvpxCOwP4LNPPoVnz4d49/W34e31Ive6XNxeeDvOOeccfnWEkAE0yJ2MdxRgjQIKsAjvtddew79f+jecTifef/99fLX/KzFPHa/G+d8/H5dnXI6rrroKarVasiwhJBQFWGS8owBrFFCARQYTCARw6NAhnHDCCTj22GP5bELIICjAIuMdjcEiZAwoFArMnj2bgitCCJmkKMAihBBCCIkxCrAIIYQQQmKMAixCCCGEkBijQe6jYNmyZbjnnnvw+OOP81mEEEJG6IYbbsD69etpkDsZ1yjAGgUswPr666/5LEIIITFQWVlJARYZ1yjAGgU0TQMhhIwumqaBjHc0BosQQgghJMYowCKEEEIIiTEKsAghhBBCYowCLEIIIYSQGKMAixBCCCEkxijAIoQQQgiJMQqwCCGEEEJijAIsQgghhJAYowCLEEIIISTGKMAiI+bz+ZCXlwe73S77dywFAgGUl5fD7XbzWRKBQAAlJSWwWq18FiGEEDLqKMAiI6ZSqdDY2Ij8/Hw+K+Z2796N1tZWPjmEQqFAVVUVzGYzn0UIIYSMOgqwxoENrz+Hn/7jfqTWF2NRkxXN7h18EUIIIYRMIBRgjTHj02tR7WzCZQnnYWnqAqhPPBm3PPMwVrfb+KKyWFeYUqkU/wmCICljt9uRl5eHZ599NqSc2+1GRkaGmCbXrWe32yXLZWRkSLrooukStFqtyMvLg8/n47MkrFar5LNKSkoQCASAge0wGAxwuVxITU0Vu//sdjtKSkpQXl4ubp/L5ZJ0EQZ3GQbvD78vTPB2sGMXriwhhBDCowBrDK3d/g+829+D1kUVuDfDiFsuzMIj2bdj44J78PBrW/DvD3fzi0j4fD4sXrwYANDX1we/3w+HwwGDwRASZLW2tmLr1q1iubKyMhgMBpSWlqK5uVlctrCwULKs3W6HzWZDV1cX/H4//H4/cnNzUVpaOmiwFMxsNqOxsREqlYrPElmtVgiCIH5WX18fAGD9+vUAgPz8fDgcDuh0OjidTkn3X319PWbNmgW/34/29nacffbZYl4wi8UCAOL609LSJPvCArHg7TCbzVi0aBG3JkIIISQ8CrDG0Ma3XsKvLvkpEmZJg46rz07FdcmXYcu72yXpvJaWFni9XhQVFUGhUAAA9Ho9ysrKYLVaJQGQTqeTlMvMzAQGAh8W9CQnJyMrKwsejwcYCOBsNhuMRqMkMFq4cCG8Xi/27Nkjpo1UIBBAb28v9Hq9+FlDGUel0+mwcOFCPjmEyWRCTk4OMLB+o9EIr9eL/v5+YGCMV319veS4sGNKCCGERIsCrDHU80U/dKdo+GQAQLIqAd1+L58sCgQC6OjoQFpaGubOnSvJy8zMlAQNAKBWqxEXFycpNxh+8DrrNktNTYXL5eKLj4hCoUB6ejosFsuwuuKi3b+EhAQxyJTj8XiQlZWF5ORkSXpiYqLkb0IIISQSCrDGUMIsFd7u7+GTAQDv/68PGuWpfHKI+vp6xMfHS8YtGQwGvtiwBY9XampqgtPphNPphE6n44uOWH5+PpxOJwAgNTU14hipWHK5XGIw2t3dzWcDADQa+UCYEEIIkUMB1hi66fv/D4/ufA79gS8k6f/+cDc2v9OOXK1eki6nrKxMHBsV/K+9vR1arZYvPiRutxvV1dWora2N2ToHo9Vq0d7eDr/fj66uLqjVaixZsmTUgywmXEsV6zYlhBBCokEB1hhakf4zfG/2Kbhy42+xbkcj7G+/gpXbnsANjWtw5yU5+HHSxfwiItalJghCyGBz9tQgnz5U/f39cLlcIa03O3fujHkXoRyVSgWz2SxpYRptGo0Gra2tIePLwrVsEUIIIXIowBpDx0ybhi3X34tb5xnwzHuv4f5XN+K/n3nw6NVLsSrz53zxENnZ2QCAVatWiVMZsFYnfmD6cMTFxUGn06GtrU1MY+uPNfb0XvC0DADQ1tYmGRPFxlmNVsCVkpICk8kkeUhAEARYLJaox3kRQgghFGCNA8WpC7Bt8YP4b+EGPH3D73DjeT/ki8hSqVTYuHEjAIjjsFJTU1FZWRmTWdW1Wi0aGhrQ1NQkjsMqLS3FE088gaysLEngNZjB5sFSKBSoqKgAgvZFOTBXV11dnRgszp07F2lpaTAYDCHBWCywJxf1ej2SkpKgVCphtVrx1FNP8UUJIYSQsKYdOXLkCJ9IRmbZsmVYvXo1n0wmMLvdjo6ODlRUVER8CpEQcnSYzWZs2LCBTyZk3KAWLEKCCIIgtpwxrFs0PT2dgitCCCFRoQCLkCB6vR61tbUwGAxiN2Usu10JIYRMDRRgEcLJz88PmfZCrx98ygxCCCGEoQCLEEIIISTGKMAihBBCCIkxCrAIIYQQQmKMAixCCCGEkBijAIsQQgghJMYowCKEEEIIiTEKsMiEZbVaJROChiMIAjIyMuB2u/ksQgghZFRQgEUmJLfbjaamJj5Zll6vR3t7O7RaLZ9FCCGEjAoKsMaB9c5mZG8qw4W1v8YNjWvQ+G4HX4QQQgghEwgFWGPshi1r8OjO53BV4jysSM/HWSfHo+C5ajzw6lN80RCs60sQBOTl5YmvdrFarXxRBAIBlJSUiGX49+1hoMutpKQEDQ0NYhnWtcbe0RduWQS9x4/9KykpQSAQkJSxWq3Iy8uDz+eTpPP4dQV38QmCgNTUVLhcLhgMBvFz2HGoqamRbCffRTiU4+Z2u5GRkSGWaWhoQElJiWxZQgghhKEAawxVdNjR/T8v/r34QZRediMWXXAFrFfeir9f91tUdzZha9dOfpEQLpcLVqsVdXV18Pv9cDgcsFgssNvtYhmfz4fFixcDAPr6+sRyBoNBUg4A6uvrsXfvXvj9fvT19SEtLQ2pqamw2WzisrW1tVi+fLlkTJPdbofBYIDD4RCXBYAVK1ZIgiyz2YzGxkaoVCoxjScIgmRdfr8fxcXFKC0thc/ng16vh9PphE6ng8PhQFVVlfgS5tbWVrjdbnFbw73iJprjxgK54uJicZ927dqF+vp6yboIIYQQHgVYY+ip/27DHRdfg9NOUErSr0qaj4XJl6HJHdpKJMdsNosBS0pKCkwmE7q7u8X8lpYWAEB5ebkYiOj1epSVlcFms0lak7KyslBQUAAAUCgUSE9Ph06nQ1FRkbjs/PnzAQD9/f3AQABns9lQVlYmBjQKhQJFRUXo7OxEc3OzuP5oeDweZGVlITk5WUzLz88fNDBjjEajuK2RRDpugUAANpsNJpMJOTk5QNA+6XQ6yXoIIYQQHgVYY+jjL/rx/bgz+GQAgFaVgA/9e/nkEDqdDnFxcXyyRHd3NzQaTUjQkZmZCa/XKwZKAGTLDWbPnj1obW1FZmamJH3u3LlIS0uTBHvRmD9/PrxeL5KSkkJa2AYTzfFAFOUCgQA8Hg/S09MlxyMuLg5qtVpSlhBCCOFRgDWGvjcrDm995uGTAQBuXy/OVJ7GJ0ett7cXgUAAgUAAvb29fPaoMBgMknFT8fHxw+pO02q1aGlpgclkQmFhobi+oQZbw8GOW39/P7xeL58NhUIBjUbDJxNCCCESFGCNoUUXXIENrz+Hvi8/l6S/2PU6tuzZjuuSL5OkD4dCoUBCQgKfHHM6nQ5Op1McMxX8z2w288UHpVAoUFVVJa6jrKwMhYWFRyXIQoSWKtayRQghhERCAdYYWpGej7PmnI5s20pUdNjxN9dLuLu1Dsan16I4dQGyE+fxiwxLYmIiOjs70dPTI0lva2uDWq2O2FUWjeTkZKjVauzcKR2U7/P5kJeXF5OgqKCgAFlZWUPubhwu1lLV0dEhGaQfrmWLEEIICUYB1hj7x8IV+NX8n2LbR2/iIeGf8Oz7FI//tAT3Xf7dU3+xkJ2dDbVajZqaGjFYEAQBFosFRqMxqoHjkahUKhiNRhQWFkqmb6irqwMGPn8o7HZ7yMzr/Dgv1sI0Wq1JCoUCRqMR9fX14iD9QCCAmpoauFwuJCYm8osQQgghIgqwxoGiS66F42e/x+6CGtgXrohJ12AwlUqFjRs3AgDi4+OhVCqxfPlyOJ1O5Ofn88WHJT8/X5z6gY2Z6u3txcaNGyUBXDTzYOXn56O4uBipqaniuti0DewpRZVKBb1ej8LCwkHXN1xsOojq6mpxTNm8efNgMpn4ooQQQojEtCNHjhzhE8nILFu2DKtXr+aTySTg8/lQUFAAs9kcdo4tQsjoM5vN2LBhA59MyLhBLViEyGAz3/Oz0bNuz+A5ugghhBAeBViEyFAoFCgvL4fH4xG7VcN1exJCCCE8CrAICUOlUqGxsVEy5UTwa3kIIYSQcCjAIoQQQgiJMQqwCCGEEEJijAIsQgghhJAYowCLEEIIISTGKMAihBBCCIkxCrAIIYQQQmKMAiwyJHa7fdReTTNSgUAA5eXlkncYhjOe94MQQsjERwEWmTR2796N1tZWPllWfn4+GhsbacJQQggho4ICrDH03oIbIv77sOg3/CKEEEIImQAowBpD33z6GU4tukP238k51/DFZVmtVvE1LkqlMuTdeQh6r15wOUEQJGUEQUBGRgYEQUBeXp5Yzmq1Ssox27dvl6zPbrfzReB2u5GRkRGxHCvDp/Pk9iF42+x2OwwGA1wuF1JTU8U8u92OkpISlJeXQ6lUIiMjA263O6SLkP3NjkO47YXMfjU0NKCkpCTssSKEEDL1UIA1xqafegqUhuyQf9GwWq0QBAFdXV3w+/3o6+sDAKxfv14s4/P5sHjxYgBAX18f/H4/HA4HDAZDSJDlcrlgtVpRV1cnlrNYLCFBRmtrK7Zu3SpZX2FhoWR9brcbS5YsQWVlpfiaGblyWq0W7e3tyM/PF9N4gUAAK1asAIL2oaurC4IgiNuWn58Ph8MBnU4Hp9MJs9ksLl9fX49Zs2bB7/ejvb0dWq1WzAvW2toKm82GlpYW+P1+1NbWhmyvIAhITU1FcXGxeMx37dqF+vp6yboIIYRMbRRgTVCBQAC9vb3Q6/XiOCKFQoGqqipJcNHS0gKv14uioiLxHXp6vR5lZWWwWq0hg7zNZrO4vpSUFJhMJnR3d0vK6HQ6yfqSk5ORlZUFj8cjltmyZQvS0tKQkpIiprH1tbW1iWnRCAQC8Hg8SE9PFz+TvScwUmDG6HQ6LFy4kE8Owe9Xdna2ZL8CgQBsNhtMJhNycnKAgWNeVFQEnU4nWRchhJCpjQKsCUqhUCA9PR0Wi0Xs9uIFAgF0dHQgLS0Nc+fOleRlZmbC6/Wiv79fTNPpdIiLi5OUk6NWq2XLBQdiZrNZfDGyIAhQKpWIj48fVkuPSqWCXq9HYWHhsJ78C7e9vMHKyQV6ABAXFwe1Wi0pSwghZGqjAGsCy8/Ph9PpBACkpqZKxhgFq6+vR3x8vGT8ksFgkJSJpLe3N2Rc12CCxykZDAbU1tair68PJpOJLxoVs9kMh8OB1tZWJCUlQalUDivYGg4WOPb398Pr9fLZUCgU0Gg0fDIhhJApjAKsCY6NYWLjktRqNZYsWSIJssrKysRxUMH/Io1HGolAIICamhqkpaWJY6ai6cobjF6vF7fd6XTC6/WioKDgqARZiNBSxVq2CCGEEIYCrDF2oPtDfN7YFPJvOFQqFcxmM1wuF/r7+8VuREEQQoIQ/im6WGIBR0JCgqQrraenB52dnZKyw6XValFcXBzSzTmaWEtVR0eHpEUvXMsWIYSQqYsCrDE040wNPrdvlv23r3UbX1yCTVvAT8vQ1taGrKwsJCcnAwMDtQFg1apVYjm3243q6moYjcZRmWiTBSLBgR1r1XK5XHzxQfl8PuTl5UmmQZAbX8bGT41WwKVQKGA0GlFfX4/m5maA26/ExER+EUIIIVMUBVhj6CzbXyP+O7PmEX4RkUKhQEVFBQBIxlcJgoC6ujoxcFKpVNi4caOkXGpqKiorK2PSbSeHbZtGoxHHS8XHx8NoNKKsrEwSeEUzD5ZKpUJdXZ04WJ6tDwAqKirEVrK5c+ciLS0NBoMhJPCMFb1eD6fTierqanE75s2bN+yxZYQQQianaUeOHDnCJ5KRWbZsGVavXs0nk0nK5/OhoKAAZrMZer2ezyaEjAKz2YwNGzbwyYSMG9SCRUiUwnXL1tXVAQPzgRFCCCGgAIuQ6CkUCpSXl8Pj8Ui6ZXt7e7Fx48ZRGc9GCCFkYqIAi5AhYDPIB093wSZUJYQQQhgKsAghhBBCYowCLEIIIYSQGKMAixBCCCEkxijAIoQQQgiJMQqwCCGEEEJijAKsceLQwS/w0e7H+WRCCCGETEAUYI0D3x78Em88ezu6Otfjgx0P89lDEm4yzGi43W6Ul5cPeTn2mRkZGXC73Xz2iLYpFti7DCO9jmesCIIgecfiaGDHn83bFfxaJV602yMIQtj6JoQQQgHWmPv2UABvvlCEg1/tRdIPSvCxayM+2BH+HYSjacuWLdi3bx+fHDWXy4WampoxCaIiYXNXjda7F4crEAjAZrPxyTHl8/mwePFiJCQkSObucjgcMBgMIS/QjnZ79Ho92tvbodVq+SxCCCEUYI2tw99+jTee+yUC+zy46Nq/4IyLbsH5V67Fx66N6Or8A198Qqivr0dzczOfTMZIS0sLAKCgoECSrtfrUVtbK3nxNiGEkNihAGuMHD50AG8+/2t8ve8jpOTU4wRlIgDglKRsnH/lg+h5469RBVms+4t1+1RUVPBFgIHuv4yMDEkXEesyY11IFosF9fX1iI+Pl3Qf2e12yXLhuoZMJhOqq6tRXV0tm8/jt12pVIZ0T8l1b/FlMNBlFa4M30Vot9uRl5eHZ599VrKMIAghx0muW5Hfbv54sG22Wq2SYxdcjrUs1dfXw2KxSPLk9pnvzmPbKbd9PK/Xi/7+fj4Z+fn5aGxshEqlCrs9giAgLy8PNTU1km3huwjZ36y8XD0w/DFuaGgQjxchhEwWFGCNgcOHDsD14lIE/B8i5drHxeCKOSUpG+f9aA163ngCH+58TJIXzO12IycnB3q9Xuz6mTVrFurr60PKLVmyBJWVlZIuosLCQgiCAIVCgaqqKpSVlcFkMqGvrw96vR4YCEZsNhu6urrEZXNzc1FaWirb8rFgwQKkpaUN2lXo8/lQUFAAo9EortfpdKKpqUkS+K1YsQIA0NfXB7/fj66uLgiCIAks7HY7DAYDHA6HpEykG3Zrayu2bt0qrresrAwGgwGlpaVobm4OOUaM3DEvLi7GkiVLQoJKi8UCAPD7/ejr60NaWpp43FQqFTZu3AiTyYSysjKxu40FOgjaZ9adF7zPWq0W7e3tg3Z7zp8/HwCQmpoaMRgLtz0YOFZut1vcHnZu8FwuF6xWK+rq6sTttlgsks8VBAGpqakoLi4Wj8uuXbtCzllCCJnoKMAaA/s/fw/79r6BOXPTccLJSXw2AEB1xg8x+1QdvHv+hcOH5AOVLVu2QK1WS7p/li5dCpPJFFIuLS0NKSkpYlpKSgpMJhPa2tokZYP5fD7YbDYYjUbJi4wXLlwIr9eLPXv2SMpj4IXIRUVF6OzsjNhVyLqusrOzxTStVovc3Fx0dHQgEAggEAjA4/EgPT1dfNcfP56KbWNtba1441epVDCbzRG7v3Q6HYqKisT1ZmZmAgDMZrO4r8nJycjKyoLH4xGXkzvmOTk5skGlyWRCTk4OMHBcjEZj2NYkhh2X8vJycdv0ej3Kyspgs9nC7k84Wq0WlZWVAIDCwkKx1SgvL29I6zIajVG9bzH4+LFzrLu7Gwga48Ufl6KiIuh0Osl6CCFkoqMAawzMPvUCXGiowWddLXhfWMdn49tDAbzx3O04GOhHyrWP45jjQm9sgUAAvb290Ov1kuBHoVAgISFBUtZsNosvJGZdafHx8YO2GvDBjNVqhVKpRGpqKlwuF19cpNVqUVxcHLGrMLh7KrjLiLX6YODz9Xo9CgsLwwYE/f398Hq90Gg0knS9Xi+uX45arUZcXByfHJHP54MgCLLHPD09HR6PRxJgJSQkRBWUBOvu7oZGowlZLjMzc9DgLJzg1rba2lpgoFUqKSkpYisfo9PpojpWg5WTC5gBIC4uDmq1WlKWEEImOgqwxojy9Etw4dUb0PfOZkmQ9e2hAN54thDfHtyPeQuewIwTT5Msx7CblZzERGmXY3AAYzAYUFtbi76+vpCWLjnBY4iamprgdDrhdDoHbXEI16rDBI9jSk1NRW5urthVF8xsNsPhcIgBAd/60t/fHzHYGw0Wi0U8JuxfYWEhX0yWy+UKGySxoHk05efni11zJpMJFoslZHxXrPX29iIQCIjBME+hUIQEyIQQMtFRgDWGTlKnDARZjXhfWCcJrlJy6nG8InxrQKSbEuuSwcBNu6amBmlpaeIYmsHG7TButxvV1dWora2F3+8f0mP5wV2F//rXv/hs1NXVAYA4tstsNvNFRMEtME6nE16vFwUFBbItWkcDOx78v0gtZtGQa30cCRbEyo29Cu6aCxeox1q4lqpIPxYIIWSiogBrjJ2kTsFF1zyKvnefxo5NP8Hhbw8iJedxTJ95Ml9Ugt2M+XFGfCsIu3nx3VU9PT3o7OwU/5bDWof4QG7nzp1RtRqxrsLi4mJJdyTbRr4rjHXBRcLWybrL5MZJIajVbrD1DQXrsmRjxIJZrdaYTKSamJiIzs5O9PT0SNLb2tqG3K3JtnewsVt8/Y4W9qOAP37hWrYIIWQiowBrHJh92oVI+WktTlRpkfLTOkyfOYcvIosNtGatQQDQ3NwsCWbYTS04EGOtWnyQlJiYKBlHFBcXB51OJxkIz1q1opWTkxPSFcmCQz6QqKurQ2trq/g3a4HhJ8Ps6OhAWloa5s6dC5VKBaPRKHnaL7jVLnhgfywsXLgQnZ2dWL9+vZgmCAIsFkvUA8EZdhxYFxoGBv2r1WpJ12rw+ofaQsbOEb7Fz+fzobS0FLm5ueLDAXLbE0uKgYH+wXOlBZ+LfNc2IYRMZBRgjROzTjkfKT+tw3EzTuKzwlKpVKirqxMHriuVSnR0dKC4uFgso1AoUFFRAY1GI45hio+Ph9FoRFlZmSTwmj9/PrxeL5KSkmC326HVatHQ0ICmpiZx/aWlpXjiiSeQlZUV8QlEJrgrKpjZbEZubi5SU1PFdScmJqK2tlYMvOT2Lz4+HgBQUVEhBjP5+fniVAasTEJCgjiwP5a0Wi2am5sl27R8+XI4nc6w0xdEkpmZKZl7TDUwXQIAxMfHS9Yf3LUb7TxY7EEFvV4v1r9SqURSUhLMZnNI1yy/PbGm1+vhdDpRXV0t1tW8efNCgnBCCJnoph05cuQIn0hGZtmyZVi9ejWfTAiR4RuYE81sNg8rSCVTk9lsxoYNG/hkQsYNasEihBwVgTAv/WZd3MnJyUGlCSFkYqMAixByVCgUCpSXl8Pj8Yjdn0qlEr29vdi4ceOQx5cRQsh4RgEWIeSoYWPCgqe3GI2xcoQQMtYowCKEEEIIiTEKsAghhBBCYowCLEIIIYSQGKMAixBCCCEkxmgerFGwbNky3HPPPXjkkUf4LEIIISN02223Yf369TQPFhnXKMAaBcuWLcO9997LJxNCCImR8vJyCrDIuEYB1iigmdwJIWR00UzuZLyjMViEEEIIITFGARYhhBBCSIxRgEUIIYQQEmMUYBFCCCGExBgFWIQQQgghMUYBFiGEEEJIjFGARQghhBASYxRgEUIIIYTEGAVYhBBCCCExRgHWBCYIAjIyMuB2u/msmLDb7cjLy4PP5+OzouLz+ZCXlwdBEPisMcW2y263y/4da1arNapjMNr1OV6N9vEfiUAggPLy8qjqZKTfl0gCgQBKSkqiOo9Gwu12o7y8HIFAgM+SGM91Rsh4QQEWCSs/Px+NjY1QqVR8VlTq6uqg1+uh1+v5rDGlUqnQ2NiI/Px8Pivm3G43mpqa+GRZer0e7e3t0Gq1fBYZI7t370ZrayufLGuk35dIFAoFioqKsHbt2qiCveHasmUL9u3bxyeHOJrfIUImKgqwxthX3xxA2csNuKD2lzi1+iZc9te7ULfbwRebcARBgCAIKCgo4LMIIcOg1Wpx2WWXYcuWLXwWIWQcogBrDH158GsYbGV45j0BF8fHYdH3z8fck47Hfa88iV+98Ae+eNTsdjuUSqX4z2q18kXEJv7gMlarFSUlJWL3AN/lwbqwBEEIWTZYIBCAzWaDXq8P+TXPfy7fJcbyGxoaUFJSIpZj22W1WsW0cN0xwWXkykXTvWG1WkOWkyMIguSzgvdHEASkpqbC5XLBYDCI+8COX01NjbgcC0j55aM53pA5rnL1GS3WHRW8X3Kfye87/1lsPVarVXJO8nXOfPXVV5LPDXf8o61fuW3m8eviz3+DwQCXy4XU1FRxfXa7HSUlJSgvL5fsD/99YX+zemSfIXfeud1uSRl2/vP7sHDhQmzfvl1y/Ox2e9hjGoz/DOXAeYegurJYLKivr0d8fDwEQRDTa2pqxPOrpKQEvb29ku9Q8HdqqN/RvLw8PPvss1HtAyETCQVYY+j37RvhP7gPt6Z8Hz9IOB3nqOYg84zvYbHufPz97XY0v7eDX2RQVqsV1dXVcDqd8Pv96OrqgiAIkhuH2+1GTk4O9Ho9/H4//H4/AMBisXBrC+VyuWC1WlFXVwe/3w+HwwGLxSK5afT09KCzsxOZmZmSZeU+t7i4GEuWLAm5sBYXF8NoNMLv98PpdKKzsxPx8fFITEyE3+9HX18fNBoNVq1aJbmpW61W9Pb2oq+vL2K5wZjN5kG7ewRBgMFggMPhkOxPaWkpfD4f9Ho9nE4ndDodHA4HqqqqoFAoAACtra1wu93idobrRo3meMsdV0RZn7xAIIAVK1YAgLht7BwK/kwWfLB97+vrAwCsWLEi5Diz7WDl0tLSxGMULLjOw9VbNPXLuq/MZnPQ2kNZB8bGdXV1SfZh/fr1wECXn8PhgE6ng9PplKyvvr4es2bNgt/vj9it29raCpvNhpaWFvj9ftTW1qKwsFAMbBAUiBcXF4vbsWvXLtTX10vWBQBz587FmWeeKWnFys/Pj7gNGDhHlixZIn4GO5eWL18Ot9sNhUKBqqoqlJWVwWQyoa+vT3JOrly5EmazGX6/H1VVVZg5c6Zk/UxhYSEyMzPF8waApG5YwBZ83M1mMxYtWsStiZCJjwKsMbT53Q5cEn8ajpk2TZJ+xuyT8IOEM9D4brskfTDugfE+lZWV4sVWpVLBbDajvr4eu3fvBgbGWajVakn3XUFBAbKyssS/IzGbzWLgkZKSApPJhO7ubjG/v78fABAXFyemIczn5uTkIC0tDTU1NZIbaVlZmXiBnzt3LtLS0mAymZCTkwMMjElJT0+Hx+ORBI5NTU0wGo1iIKNQKGA0GtHZ2Ymenh5x/bHg8XiQlZWF5ORkMW0o43CCtzOSwY633HEdSn0GCwQC8Hg8SE9PF7eNH2/j8/lgs9kkdcTGCHV2dqK5uVmyTr7ejEYjvF6veJ4w/PpGs34DgQB6e3slrawsyBgsMAMAnU6HhQsX8skhdDodioqKxO3Nzs5GVlYWPB4PENTayx+joqIi6HQ6ybpYXkJCAnp7e0MC2UjYsZ4/f76YNpQxfyaTCSkpKXxyiOA6VKlUMBqNkjrcvXs36uvrJee0Xq9HWVmZZD2ETAYUYI0hX+BLxIW5wZ4wfRq8+//HJ0cULrBJTk4WL+pyNxYMXLg1Go1kOTk6nS5k/TyPxwO1Wi0p5/P5IAiC7OfyN1IASExMFP8fLa1Wi/b2duj1evGXslKphMFg4IvGxPz58+H1epGUlCTb7RNJNMcRUZQbaX3yVCoV9Ho9CgsLw3bv7NmzB62trSEtlCwQDg7+ACAhISGqQFKuzoMDsVjWLzvvLBbLsLqm+PM7nMHKyQW0GPgOq9VqSVkmMTEx5PsymOTkZKjVaklX51CMpA6Dyf0oQRTLETIRUYA1hjQnnYKeL77gkwEA/V8dwLmquXxyROxXcSTsgs5jv4yHK/gXNX+DDWaxWCRjQJRKJQoLC/liw8bGdsTHx8Pj8aCrqwsOx+g8NKDVatHS0gKTyYTCwkJxf4YabA0HO96jUZ9msxkOhwOtra1ISkoKO5bGYDBI6jE+Pl62W0uOy+UKacGKRizrNz8/H06nEwCQmpoKZYTxYbHGviP9/f3wer189rAD5HBYK2RZWZnkOzicYGuogoPkcNeGWO4rIeMFBVhjaNEFV2DHx59g7/79kvTd3r1481Mvbjjvh5L0wURzkQp34WYtIbEQ6ddobW2tOAYk+F+03WqRCIIAi8UijguKxToHw7qV2H6UlZWhsLDwqARZGMX6DB7P5XQ64fV6UVBQIAZZbFwSX49sTM1oGI36Za1i/oExQ2q1WnZM4GgJ11IVLnAeKTaOyj8wHsxisRyVIIsJd20YjX0lZKxRgDWGzPobccWZKajb9Saecb+PNs9HaHz3PTS+uwcrLrsRGXO/zy8SEeuK2LlzpySddeloNBqxZUMQBEmLRCwv6BqNJmSMDet66ujoCOnasA7zaTeex+OR7VJra2uT/D2a2NincL/UY+1o1KdWq0VxcbFYp6y7iT/Pgp8kGw2jXb+qgfGKw21dGw4WIPPfi3AtWxhoBWLf5ZHIycmByWQa8niukdBoNGhtbcWePXsk6Ufr+0LI0UQB1hir/+ldeCjrVsyZqcZngWk45+QkPH3973CP/ga+6KC0Wi1yc3NRXV0t/gL3+XywWq2SQaoLFy6E1+tFXV2duGxdXR1aW1ujHmsRCbsB8jephQsXorOzU3xKC0GtEtEO+I5Eo9HA5XJJbvxs/aNB7vF4fnwSa6GIVbAjJ5b1KTfFQSAQQEdHB9LS0jB37lxx8DL/NBz7/OzsbDEtlmJZv4GBMVx8YN/W1iYZIxTuXI4VxcAg/fr6evHhgEAggJqaGrhcrpAWH9YyOdR6FQam1AiuL/a0b/D4r+GM7xoK9pCG1WoVfxCwOhxsvBohEw0FWOPAzy/Igu26FXhp0VrUXlOCTE3o00PRMpvNKC4uFseUJCUlwWg0SqYI0Gq1aG5uFi+6SqUSGHgCKBZYoMe3LMh97vLly+F0OiWPhA+XXq+Hw+GQjIey2Wx49dVXAZmWvUisUcyDlZ+fLznWyoEB1w6HQ/Ik1WCDxkdK7rhCpj7dA/MgRWphUqlUqKurk6wrPj4eAFBRUSGeQ2wKg+BxWL29vdi4ceOIu+3CibZ+5YJEnkKhQEVFBQAgPj5eXJ8gCKirqxP3gQ3cD57HLNb0A9N5VFdXi8d73rx5MJlMfFH09PTgww8/lDzBKBfo89ixC64vNjVE8GzsI3lwIxqsS12v14vj+6xWK5566im+KCET3rQjR44c4RPJyCxbtgyrV6/mk8e1wMD8R+np6TF5/YUgCFi+fDkaGhqiegycxFa4+hQEAR6PJyZ1TEaPz+dDQUEBzGaz5McHCxpHa5zbWLHb7ejo6JAE8YMxm83YsGEDn0zIuEEtWFOQXOtMc3MzOjs7JfPkjIRer0dubi691uMoGEp9trW1yQ6KJ2MjXFcl624Nns7A7XZj+/btUc2/NV7JdVW63W5UV1eHTFVByERHAdYUtHTpUmg0GrGJnnW1NDc3x7S1qaCgAMLAK2DI6Im2PlkAFs2EkeToUCgUKC8vh8fjkXRV8t2tbFxWaWlpTL+jR5ter0dtbW1IV2VlZSW1qpJJh7oIR8FE7CIkhJCJhLoIyXhHLViEEEIIITFGARYhhBBCSIxRgEUIIYQQEmMUYBFCCCGExBgFWIQQQgghMUYBFiGEEEJIjFGANUXJTXBot9tDJqy0Wq2jMo8Ve53JaKx7JPgXFvN/x5ogCBFf6cIIgjDo61AmI3aeRnOMxkK09Xc0ziN+stKhkPvuj7bxXreEjBQFWESUn5+PxsZGcXJDt9uNpqYmvlhM1NXVQa/Xx+QdhLGkUqnQ2Nh4VCY9DAQCsNlsfLIsvV6P9vb2CT3J5GQzlPob7fNKr9cjISFB8iJ1QsjYogBrjPkP7If5pTpoHy2A6pGfIbV+Gf70+rN8sUmFze5eUFDAZxFChmnhwoXYvn37lGvlJGS8ogBrDPkPfAXD38vQ0v06fjg3Hksu0kE7ZxYe3P53FDz7CF9cFmtmZ6+d4N/zxbAuClamoqKCLyLpJhAEAampqXC5XDAYDJLuB35dSqUypJnfbrejpKQE5eXlUCqVYvcW+9Wv1+vFljKGXy/fJcbyGxoaJPvMts1qtYpp4bo7gsvIlYumK0fu3X9y2HvX5PbH5/Nh8eLFqK+vh8ViEfOC9zEjI0M8tnwXYfB2Drbf/HG1Wq2wWq3D7lLij6HcevjP5OsSQecb2zdWNtyxD/5cufVhYJ3B2yZXbizqjz+vRqP+tFotLrvsMsn7P9my/PcznE2bNkn2OZpridwxHko5QiYrCrDG0Or2pxD4JgDTRefj4ng1kk4+GelnnI7FF5yPp9078PSe7fwiEuwiDwB9fX3w+/1wOBwwGAySC6Pb7UZOTg70ej38fj/8fj9mzZqF+vr6oLVJ6fV6OJ1O6HQ6OBwOVFVVQaFQwOfzoaCgAEajUVyX0+lEU1NTyI2xvr4es2bNgt/vF7u3enp60NnZiczMTElZuW0sLi7GkiVLQi7KxcXF4uc7nU50dnYiPj4eiYmJ8Pv96Ovrg0ajwapVqyQ3IKvVit7eXvFYhSs3GLPZLOlKlSMIAgwGAxwOh2R/SktL4fP5oFKpsHHjRphMJpSVlYV0/9XW1qKhoQF+vx9ms1my7mCFhYXIzMyE3+9HV1cXAEj2R+64AoDFYpGsJ1os2Ovq6hKPIQBJ15TcZ4ary9bWVthsNrS0tMDv96O2thaFhYUhN3aLxSLWr9/vR25urngsGbvdDpvNJm5buHKTuf4yMzPR1NQkHmfWNRlpG5jW1la0traKxy/aa0lxcTFSU1OHVY6QyYwCrDHU+E4HLjn9ND4ZCbNnIS1hLp7e08FnSbS0tMDr9aKoqEh8C71er0dZWZn4qxkAtmzZArVaLemSW7p0KUwmk/h3tFpaWgAA2dnZYppWq0Vubi46OjokgYpOp8PChQvFvwGgv78fABAXFydJl9vGnJwcpKWloaamRrLesrIycezW3LlzkZaWBpPJhJycHGDgBbrp6enweDySG1VTUxOMRqN4rBQKBYxGIzo7O9HT0yOuPxY8Hg+ysrKQnJwspvFj3CLJzc2NarxV8LFQqVQwGo2S/ZY7rgUFBcjKyhL/jlYgEEBvb6+k9VGhUKCqqkpyA5f7zHB1qdPpJOdvdnY2srKy4PF4xDIAJPWLgUDC6/WK55PP54PNZoPRaJQc34ULF8Lr9WLPnj1iWjQmav2x7xU7LkOh0+mwdu1acf/YtcRms0m2Jy0tDUuXLhWXy8nJgclkGlY5QiYzCrDG0OcH9kM1cyafDABQHDsNe7/67teqnEAggI6ODqSlpWHu3LmSvOCbj9xNEQM3xoSEBMly0Qi+ybjdbrEbRO4XtVqtDgmkPB5PSLpvoEtSbhv5QAkAEhMTxf9HS6vVor29HXq9HoGgblWDwcAXjYn58+fD6/UiKSkppGUvGtHuY6Rykepeo9FIykaD1UdwlxhvqHXJnwvhJCQkiEEY43K5xECCtdSwQeSs2411cw/VRK2/uLg4qNXqkAA1GnJ1kZmZKf4AYdvD1wVft9GWI2SyowBrDJ2pPAUf7dvHJwMAPgscwHmqM/jkEPX19YiPj5eMmwgOGgKBQNiLbaSLezjB4ypSU1ORm5sLv9+PsrIyvqis7u5uPklksVgk+6FUKlFYWMgXGzZ2042Pj4fH40FXVxccDgdfLCa0Wi1aWlpgMplQWFgo7s9wbtZDFRxcy9X9cINrDATYTqcTAJCamhp2bM1I6zLSeRJO8PirpqYmOJ1OsZt7qCZr/UWi0WhCgthg4baHF205QiY7CrDG0M91V0L4+BP0fblfkr7T64XrUy9uPO+HknQ5ZWVl4hiH4H9sTEikX7vDuYnV1dUBgDhOI5qxHcEiBXW1tbUh++H3+6PulolEEARYLBZxTE0s1jkYxUD3GduPsrIyFBYWHpWbNCK0dLAWhuFirYH+gXFDarU6ZHzVaNalHLfbjerqavFz+TFRwzFZ6y+cwVqWwm0PL9pyhEx2FGCNoeU/uB4/PutiPLZrN5r2uLHtQw/++fZ7ePpdN8ovvwmXzT2fX0TEmtsFQQh56og9neXz+cRfu3y54Vyk2TL8L13WLRQNjUYjGTuDge4dvV4fMoYLA61O/NNSw+HxeKDT6UK6QNra2iR/jyY2dmY4ge1wRKr7WLUwqFQqmM1msbvuaNSlnP7+frhcrpAb+86dO4fVRShnItRff38/vF5vyHGIBv+9xMD3gw1DiLQ9HR0d4nUh2nKETHYUYI2x2qtL8CfDr3H6rDPwxcHpuODUc/Bs/v0oSb2OLxqCDTTnnzqqrq6WDPZlA2RZ6xMANDc3R3yKEDLjOdiFkx8UXldXh9bW1qAlwws3CHfhwoXo7OyUPI3GWp2CB6YPl0ajgcvlws6dO8U0tv7RYLfbQ7rO9uzZg9bWVvEJSnY8e3t7RyXoQNAg7+C6Z/XFj5EZTEBm9n8M3ISDB4SPdl3KiYuLg06nkwTM7LswHBO1/sI9RBINl8sleQjBbreH1Jnc9rBryXDKETKZUYA1Dtx43uV4MucevGhcgz8ZluKy74VvuQqmGnhUHIA4Dis1NRWVlZWSGaNVKhXq6uogBM3r09HRgeLi4qC1hWKtEYWFhWKLmNlsRm5urjj+RqlUIjExEbW1tSGBlxz2xCHfcqTVatHc3CzZxuXLl8PpdIpPWY2EXq+Hw+GQjKex2Wx49dVXgYGWjmhFM49Sfn6++Fg6+zz22H/w/mRmZorj6KJtBRwKueOKga7lYGxsXaT5khQKhTh/WvC4P0EQUFdXJwb0cp8Zy7qUo9Vq0dDQgKamJvEzS0tL8cQTTyArK0tyvk3G+mPa2tokTzBGU69MVlYWtFqtWLfV1dUhdSa3PWxqjOGUI2Qym3bkyJEjfCIZmWXLlmH16tV8MhkgCAKWL1+OhoaGEY+TIUMXCASwYsUKpKenSwJxt9uNF198EUVFRZLyZHyJVH9msxlWq3VKfK/MZjM2bNjAJxMyblALFjnq9Ho9cnNzJTNOk9Eh11rT3NyMzs5OzJ8/X1J2586dOPXUUyVpZGwNpf62bNmCyy67bEoEV4RMBBRgkTFRUFAAYeCdhGT0LF26FBqNBklJSZKumubmZsmNOBAIoLu7WzKBLBl70dafIAjo7e2VTOxJCBlb1EU4CqiLkBBCRhd1EZLxjlqwCCGEEEJijAIsQgghhJAYowCLEEIIISTGKMAihBBCCIkxCrAIIYQQQmKMAixCCCGEkBijAItEhb2HLppXbgQbznJ2uz3kfXdjjd8P/u9YEwQhqnWzV6HY7XY+a1Ibz/sdCARQXl4ueY+hnNE+h3w+H2699dZBtyOc4JfGHy2jfUwIOZoowBpHAt8c5JMmPIVCgaqqKpjNZj5LltvtxqZNm1BUVDSuXgg71P0YiUAgAJvNxifLUqlUaGxslLwyhYyt3bt3R/Xy89E+p1QqFW6//XaUlpYe1SCJEPIdCrDGWH/gC/ym5VGcWXMLvvfHm3FR3a9Q3dnEF5sSAoEAampqcNNNN9HrPgiJgZSUFGg0GrS0tPBZhJBRRgHWGOoPfAGDrQyv9ryBq87SoGDeRbjwtDmo6tyCJc+s44vLYk3q7DUaSqVS8voZ1pXCN/VbrdawZdl6+GWChWvKFwRBsl6+HPu7pqZG/CzWHbh7927Zd6xhoLsieB/5z2XdGc8++2zIsXC73cjIyBDT5LqV+DJ8OX4/5NjtdmRkZAzaJSP3Wex4+Xw+LF68GPX19bBYLOL6WN00NDSIy1qt1pCusuC/WR0rw9QlX99WqxVWq3VY3bNy56HcseI/kz9ewcc5uM75csxXX30l+Vy5/UTQ+R6uHNsuuW0ONth+2u12GAwGuFwupKaminms27u8vFzcH5fLJfvdiHbf+TLPPvssMjIyJN9phUIBo9EIm80W8v3nj0E4mzZtkuyv3Out5I6LXLnB6p+QyYQCrDFk6XgK3x45iF9ceB5STjsNZ5x0EvTfOx2LLjgXz77nROO7HfwiEuxmDAB9fX3w+/1wOBwwGAzixU2lUmHt2rXwer2oq6sDBoIgi8WC2tpa6PV6YOCmn5OTA71eD7/fD7/fD71ej4KCgqguwkO1cuVKmM1m+P1+VFVVQaFQoK2tDWlpaZg7d66krNVqRXV1NZxOJ/x+P7q6umTHKLW2tmLr1q3isSgrK4PBYEBpaSmam5vF41NYWCi5+LvdbixZsgSVlZXivsuVG0x+fj7a29sjtr6xzyouLpZ81vLly+F2u6FSqbBx40aYTCaUlZWFrK+2thYNDQ3w+/0Ru5YKCwuRmZkpHi8AWLVqlRg4ydU3AFgsFsl6ohEIBLBixQog6DxkdRQcpMp9ZnFxMZYsWRJyk2Xb4ff70dfXh7S0NNmuruLiYhiNRrGcRqOR7CcGzp/e3l5x2+TKsa7WSMc0mv3Mz8+Hw+GATqeD0+mUrK++vh6zZs2C3+9He3s7zj77bDEvWDT7zn8nGhoasGbNGrhcrqA1fSc5ORkAJK1YZrMZjY2NUKlUQSVDtba2orW1FV1dXeK5Gnx9wSDXoWjqPzU1dUjfM0ImCgqwxtDT7wq4OP5UPhnxs2Yh9fS5aNoTOcBqaWmB1+uVjFfS6/UoKyuDdaB1AwC0Wi2Ki4vR1NQkBiYmkwk5OTniurZs2YK0tDTJy2ILCgoAAHv27BHTYsVkMiElJUX8OxAIoLe3FwkJCZKxV263G01NTSguLhYDDZVKBbPZDIvFIrkw63Q6ybHIzMwEBm4m7EaSnJyMrKwseDwecTm278Hbk5KSApPJhLa2NjEtFvr7+wFA0kqn1+tDAqlwcnNzoypXVlYmBs8qlQpGoxEej0cMKLZs2QK1Wi3WMQbqOysrS/w7WoFAAB6PB+np6eKxlxsbJveZOTk5SEtLQ01NjSQoCj4/WSuM1+sVjx8TvJ8KhQLp6emS/WTnj9FoFLeNra+zsxM9PT2S9UUS7X6Go9PpsHDhQj45xGD7LvedYN9xOQqFAhqNBt3d3XzWoHQ6HdauXSt+f9j1xWaziceYBW7l5eUh16HgljO5a0xOTg5MJpNkfYRMFhRgjaH/HfgKJ8+YwScDABTHTcOngX18sigQCKCjo0O2xSczMzPkZsRuZAaDISQoCxfcsJsHu4HFEv9Z7OaVmJgoKbdz506AC0gQJlBSq9WIi4uTlIuG2WwWW9GEgS7O+Ph41NfX80VHLDk5GWq1WtJ9NBT88QknUjlW33q9XtKCwW7EQ6VSqaDX61FYWBi228nn80EQBNnP5IMiyJwf4cjtZ/C5r9Vq0d7eDr1ej0BQN5bBYOAXG1Q0+xlJtOfnYPsuF6QDCFt3CoUCCQkJ6O3tHXIQI7fNmZmZkuC0u7sbGo0mZJuDr0PhrjHh6p+QyYACrDGUdPJp+OiLL/hkAMCngQP4fpz8BTNYfX094uPjJWMf5G4e7JcwZFpBWHAzlvr7++H1evlkABDHswTvY1JSUlRPakXDHTQmymAwoLa2Fn19fTCZTHzREWNBa1lZGSwWi7g/wwm2hir4ZidX3+xGPBxmsxkOhwOtra1ISkqCUmacEwa6v4LrUalUorCwUFImHJfLFdKCFQ02/io+Ph4ejwddXV1wOBx8sahEu5+xFrzvcnUHAHFxcdDpdHzyiMgFTsFY4DSYcOccIZMZBVhj6GbdlRA+/gQf75MGWc5P+vDWp17kn3+5JF1OWVmZOJ4h+B/f5eTz+cSbON+1Nh7ExcVBrVbzyQCArKwscQwI/y+arplIAgNPLqalpYnjR0a6zmiw8Wd+vx+1tbWwWCxHJchChJaqaG+W4QSPrXE6nfB6vSFj+Gpra0Pq0O/3RzUeaDjYeEOHwxGzz4lmP0eTXN1h4EeK3BiskRisZSnaoDzcOUfIZEYB1hgqSVuIa8/5AR7btRuN7+5BS1c3/v7fPWh2v4ffZ/4cP0g4l19ExJrWBUEIubDLTRBYV1cHr9cLp9MZMkaLdX3wXQisS2UoN/7h/kplF2B+nMj8+fPh9XpDxoGxVqeRBorslzXfddHT04POzk5J2dHCxqHwx3+0sJsif+7EspWBjQlirWbsHOvo6AjZR+swn1yMhsfjgU6nC+nmitXYOn4/jwa2L6z7nAlXd+G656Iht1/8wyiJiYmy49na2trELsZI51xHR8egLWWETEQUYI2xPxnuRP1PS3DOyefgCGYj7fQL8KJxNYou+b8B6OFkZ2cDMk+HVVdXw2g0ir/U2a94NiiWDTJmTxUCwMKFC9HZ2Yn169eLac3Nzejs7JQdmMsCvKamJvEJMPbZw8EuwHyQodVqkZubKz5lB67VKXhg+nCwwC74ws/WH+vWAMhMY4GgYI4Nng53LGJp4cKF8AY9WYqB86G1tXXIN2KfzBQH7MYZfCOWO8fYuRk8CD2WNBoNXC6XJBhhnzlU0e4nC4D4wCRW2Heiuro65LsnF0yywFluvNpgXC6X5AEEu90eUl/Z2dlQq9WScsH1yq5Dcudcc3Mz6uvrR63+CRlLFGCNA7nJl6H2mmL864b78Uj2HUg9ffCnxDDQ8rRx40YAEMdhpaamorKyUuzmcrvdWL58ueTJJFXQU3jsZqHVatHc3CwGAEqlEjabDc3NzWGfWsvPz0dubq44Pqq0tBSVlZXDHgeycOFCfPjhhyG/hM1ms/g4NxtLk5CQIA5MHwmFQoGKigpoNBpxTE18fDyMRiPKyspCfnFHEs08WHq9XnyEnR3n1NRUFBcXS7omMzMzxfF1I22lkyNX3xjocg4mF1TwVCoV6urqJOuKj48HAFRUVIh1JPeZy5cvh9PpHJUHKRB0vAsLCyXn9auvvgoEtQLFcj/nzp0rPlAyWi1z/HdiyZIlWLlyJU477TS+qNj6y36QYQjzYGVlZUGr1YrXFzY1RHB9yV2HWL0Gn9Ny9W+z2dDV1TVq9U/IWJp25MiRI3wiGZlly5Zh9erVfDIZRGBgnqGEhISI8xGR0cGOf3p6uuTG6Ha78eKLL6KoqEhSnowvwsAULHV1dWKrUbg6nQzMZjM2bNjAJxMyblALFhk3FAoFioqKsH379oitQGTk5FowWJcw//j/zp07ceqpofO1kbHBxh8GT+LJHmLhp8HYvXs3PB6PpPWKEHJ0UIBFxhWtVoubbropZOJJEltLly6VdIuy7hq+SzgQCKC7u5tu0OOIVqtFZWWlpNszKSkJRqNR0vLr8/nw2GOPSSYKJYQcPdRFOAqoi5AQQkYXdRGS8Y5asAghhBBCYowCrFEwbdo0PokQQgghUwgFWKMgKSkJu3fv5pPJOHXw4EE+iUxBdB5MHH19fSHzfREy3lCANQoKCgrw5JNP0pNwE8C7776LmpoaPplMQU8++SQ6Ojr4ZDLO9PX1wWq14pe//CWfRci4QoPcR4nP50NNTQ0+/vhj0CEen/r6+vD666/joosuEmfhJlPXZ599ho6ODlxwwQU4++yz+WwyDkybNg0qlQq33377sGamJ+RoogCLTElVVVVYu3YtAOC1117DGWecwRchU8yBAwdwzjnn4NChQzAajbBarZg+fTpfjBBCokJdhGRKOXDgAG6//XY8+eSTuP3226FWqym4IgCAGTNmYN68eVi8eDGcTicWLFiAzz77jC9GCCFRoQCLTBl9fX249tpr8dFHH6GlpQWfffYZLrvsMr4YmcIuvfRSfPTRR3jhhRdw0kkn4aqrrsI777zDFyOEkEFRgEWmhF27duGqq65CcnIy/vWvf2HOnDlob2+nl8wSiUsvvRQ7duzAjBkzsGnTJixYsADXXHMNXnjhBb4oIYRERAEWmfQaGxuRm5uLX/7yl6ipqcH06dPR09MDr9eLSy+9lC9OprDLLrsMBw4cwBtvvIFjjjkGDzzwANasWYPbb78d69at44sTQkhYFGCRSevw4cMoLy/H3Xffjccffxx33nmnmLdjxw7MmjUL5513nmQZMrXNmjUL5557Lnbs2CGmGY1GbN68GXV1dTCZTPSOTEJIVCjAIpPSF198gZtuugnNzc147rnnkJWVJcnfvn070tPTJWmEIKibMFhaWhq2bt2Kd999F9dccw16e3sl+YQQwqMAi0w6XV1dMBgM2LdvH7Zu3SrbSrVjxw7qHiSyLr30Urz66qt8Ms444ww4HA7MmTMH2dnZ6Ozs5IsQQoiIAiwyqbS1tcFgMECn0+Ff//oXTjnlFL4I/ve//+G9996jAIvIysjIwP79+2WfHpw9ezb+8Y9/4LrrrkNeXh4aGxv5IoQQAlCARSaTmpoaLFq0CL/+9a/x2GOPhZ0ksqOjAzNmzEBKSgqfRQjUajXmzp0b0k3IHHvssVizZg0eeughLFu2DOXl5Th8+DBfjBAyxVGARSa8b775BkVFRXjooYdQV1eHkpISvoiEIAhITU3Fcccdx2cRAoQZh8UzGo34xz/+AZvNhptuuglffPEFX4QQMoVRgEUmtM8++wwLFixAR0cHnnnmGfzkJz/hi4QQBIG6B0lEl156aVQvfr7sssvgcDjEcX9dXV18EULIFEUBFpmwXC4XrrrqKhw6dAhbt26FTqfji4TYv38/3nrrLQqwSESXXnopvF4vPB4PnxUiKSkJW7duxSmnnAKDwYC2tja+CCFkCqIAi0xIzc3NuPbaazFv3jw888wzsoPZ5bAnvyjAIpEkJyfj5JNPHrSbkFEqlWhsbMRPf/pTLFq0CLW1tXwRQsgUQwEWmXB2796NO+64A/Hx8aiursaMGTP4ImEJgoB58+YNaRkyNen1erz22mt8cljHHXcc1q5di+9///soLy9HS0sLX4QQMoVQgEUmnJSUFLS0tODkk09GZmYmnnnmGb5IWIIgIC0tjU8mJMSll16K7du388lhtbe3IzMzE/v378czzzyD7OxsvgghZAqhAItMSOeffz6ef/553HnnnSgpKcHNN9+MTz75hC8mcejQIfznP/+hFzyTqFx66aV4//338b///Y/PkvD5fCgqKsKiRYuQn5+Pbdu24ZJLLuGLEUKmGAqwyIQ1bdo0FBQU4JVXXgEA/PCHP8Rjjz0Wdk6i//znPzh06BAFWCQqF154IWbMmIH29nY+S7Rp0yZkZGTgww8/xEsvvYS77ror7PxrhJCphQIsMuGdfvrpePLJJ/HII49g7dq1+NGPfoS33nqLLwZBEKDVanHyySfzWYSEOO6445CWliY70P2DDz7Atddei9LSUpSWlqK5uRlnnXUWX4wQMoVRgEUmjb179+KEE07A/Pnz8ZOf/AT33XcfvvrqKzGf5r8iQ3XppZdCEATx72+++Qbr1q3DFVdcgYSEBJx55pno6enBtGnTJMsRQggFWGRS2Lt3Lx588EGsXbsWVVVV+Oc//4mWlhb88Ic/REtLCw4fPozOzk7qHiRDotfr8dZbb2H//v3YsWMHrrjiCjz11FN4/PHH8dhjj6GmpgYbNmyQfW8hIWRqm3bkyJEjfCIhE82tt96KQCCATZs2iWnffPMNqqqq8Ic//AEXXXQRXn/9dfznP/9BQkKCZFlCwgkEAkhOTsb555+PN998E7fffjtKS0txwgkniGXuuecevPHGG3jhhReoJYsQIqIWLDLhbdu2DS+99BIefvhhSfr06dNxzz334KWXXsKxxx6L008/nYIrMiQKhQIXXXQRDh06hOeffx4PPPCAJLgCgN/97nf46KOP8Ne//lWSTgiZ2qgFi0xoX3/9NdLT03Hrrbfizjvv5LNFR44cgdPppDmwyJDt3LkTF110EY499lg+S9TY2Aiz2YyOjg6cdtppfDYhZAqiAItMaPfddx9aW1vx8ssvR7wBEjLarr/+esTFxeGxxx7jswghUxAFWGTCeuedd5CdnY2nn34aqampfDYhR5XH48Hll1+OJ554AldccQWfTQiZYijAIhPSkSNH8JOf/AQXXngh1q1bx2cTMiaqqqrw17/+FR0dHZg5cyafTQiZQmiQO5mQHn/8cXz00UcoLy/nswgZM3feeSdOOOEEPPTQQ3wWIWSKoRYsMuHs3bsX6enpqKiowI033shnEzKmnE4nrrvuOrS0tOC8887jswkhUwQFWGTCue2227B37140NzfzWYSMCyUlJXj77bdpbixCpjDqIiQTyrZt2/Diiy+iqqqKzyJk3Fi1ahW6u7vR0NDAZxFCpggKsMiE8fXXX+Ouu+7C0qVLcfbZZ/PZhIwbJ510ElatWgWLxYK9e/fy2YSQKYC6CMmEcf/99+P555/HK6+8guOPP57PJmTcycnJgVqtRl1dHZ9FCJnkqAWLTAjvvPMO6urq8Mgjj1BwRSaMqqoqOBwObNu2jc8ihExy1IJFxj0259VZZ52FP//5z3w2IeOa1WqFzWajubEImWKoBYuMe/X19Xj//ffxwAMP8FmEjHslJSWYPn061q5dy2cRQiYxCrDIuLZ3716sWbMG9957L71El0xIxx9/PB555BHU1tbinXfe4bMJIZMUdRGSca2goAAfffQRzSdEJryioiK89957dC4TMkVQCxYZt7Zt24YXXngB1dXVdEMiE97q1avR3d2Nxx9/nM8ihExCFGCRcYnNeXXbbbfR60bIpDBnzhz87ne/Q0VFBc2NRcgUQF2EZFxatWoVNm/ejB07dtCTV2RSycnJwWmnnYa//OUvfBYhZBKhFiwy7rzzzjt47LHH8OCDD1JwRSYdmhuLkKmBWrDIuMLmvFKpVNi0aROfTcikYLFYsHnzZpobi5BJjFqwyLjS0NCAPXv24OGHH+azCJk0li9fDgCoqKjgswghkwQFWGTc2Lt3LywWC+6++26cfvrpfDYhk8bMmTPx8MMP4y9/+QvNjUXIJEVdhGTcKCwsxNtvv42XX34Zxx57LJ9NyKRTWFgIj8dDc2MRMglRCxYZF7Zt24ZnnnkGVVVVFFyRKcNiseD9999HXV0dn0UImeCoBYuMua+//hoZGRm48sor8dBDD/HZhExqjz/+ONasWYOOjg56HRQhkwgFWGTMWSwWbNq0CR0dHTjppJP4bEImNfbkbEJCAurr6/lsQsgERV2EZEy9//77+POf/4z777+fgisyJU2bNg3V1dXYunUrzY1FyCRCLVhkTOXk5OD444/H5s2b+SxCppT77rsPzc3NeOWVV3DiiSfy2YSQCYZasMiY2bhxI9544w088sgjfBYhU86KFSvw7bffYu3atXwWIWQCogCLjInPP/8cq1atwm9+8xtoNBo+m5ApZ+bMmVi7di3q6urwxhtv8NmEkAmGugjJmLjzzjuxa9cubNu2DccddxyfTciUddNNN6Gvrw8tLS00ZQkhExi1YJGjrqOjA5s3b0ZVVRUFV4RwHn74YXR3d+Pxxx/nswghEwi1YJGj6uDBg7j88stx+eWXY926dXw2IQTAY489hgcffBCvvvoqEhIS+GxCyARAARY5qtatW4fHH38cgiDQtAyEhPHtt98iOzsb8fHx2LRpE59NCJkAqIuQHDUejwfr16+HxWKh4IqQCI499lhUV1fj5ZdfxvPPP89nE0ImAGrBIkfN9ddfDwA05xUhUVqxYgWee+45dHR00NxYhEww1IJFjop//vOfcDqdNOcVIUNw7733AgDNjUXIBEQBFhl1+/btQ3l5Oe6++26a84qQITjxxBPxwAMP4PHHH8c777zDZxNCxjHqIiSj7u6778Z//vMfbN26laZlIGQYrr/+enz55Zd44YUXMG3aND6bEDIOUQsWGVVOpxNPPfUUqqurKbgiZJgeeeQRvPPOO6ivr+ezCCHjFAVYZNQcOnQIJSUl+MUvfoGLLrqIzyaEREmj0eCuu+7CmjVrsHfvXj6bEDIOURchGTV//OMfUVtbS09AERIDhw4dwhVXXIHvf//7eOyxx/hsQsg4Qy1YZFR88sknqKysxO9//3sKrgiJgeOOOw5VVVVobm7Gtm3b+GxCyDhDLVhkVNx0000AQLNQExJjv/nNb/Dyyy+jo6MDM2fO5LMJIeMEtWCRmHvmmWcgCAIefvhhPosQMkIPPPAA9u/fj8rKSj6LEDKOUIBFYmr//v0oKyuD2WzG6aefzmcTQkbopJNOwqpVq7Bhwwa8//77fDYhZJygLkISU/feey/a29vR0tKCY489ls8mhMRITk4OAKC5uZnPIoSMA9SCRWLmjTfeQH19Paqrqym4ImSUVVVVYdeuXdi4cSOfRQgZByjAIjFx5MgRFBcXY8mSJTTnFSFHwdlnn42ioiKsWrUKn3/+OZ9NCBljFGCRmKirq4PP58PKlSv5LELIKLnrrrtw8skn43e/+x2fRQgZYxHHYPX392Pnzp04dOgQn0WIxMMPP4z/9//+Hy655BI+a0JQq9WYP38+n0zIuNfR0YHrr78emzdvRnp6Op9NCBkjYQOsJ554Atu3b8cVV1yB448/ns8mZFL56KOPsGfPHqxZswZKpZLPJmRc+9WvfoXXX38dr7zyCl2vCRknZAOs119/HZs3b0ZpaSmfRcik1d3djYaGBpq/i0w4e/fuRXp6Ou644w7cfffdfDYhZAzIjsF64YUXsGTJEj6ZkEktMTERBw8exFdffcVnETKunXbaafjd736H9evXw+Px8NmEkDEgG2B98cUXOPXUU/lkQia9k046iQIsMiH94he/wHnnnYff/OY3fBYhZAzIBliEEEImlmnTpqG6uho7duzAP//5Tz6bEHKUTckAq7u7G21tbWhqasLTTz+NlpYWvPvuu3wxQgiZUM477zwUFBSgvLwc+/bt47MJIUeR7CD3FStWoLS0FMccM3niL0EQ8PS/nkbby23o/6wfM2bOwGzlbEybNg1f7f8K+7/YjxkzZyLjh+lYcO0CXH311fwqyBTw4IMP4q677sIpp5zCZxEyIXz99ddIT0/HlVdeiXXr1vHZhJCjZNIHWJ2dnaheX43OHZ2Yn34JLtDrcM6FyTg1QTrGbJ/Pjw/++z7ees2F11oFzNWcgaVFd+Laa6+VlCOTGwVYZDLYtm0bbrrpJjQ3NyM1NZXPJoQcBRM/goqg8pGH8fOf/xzTTzoev6t9AAX3/RKXGTJCgisAOEmlxLwfXozFd/0CFbaHcF7a+Vi+fDnuuvsuHDx4kC9OCCHj1hVXXIGf/OQnKCkpoYmiCRkjkzbAKrmrBH978kncVnY7Ft99C+I1p/NFwjph9onIufU63FO9Aq6334Jx0U3wer18MUIIGbfWrFmDjz/+GH/+85/5LELIUTApuwjvuvsuvNb5GgruuwNzzzqDzx6SA4ED+MvvH8Xhr7+F7SkbZs6cyRchk8hE7CL8+OOP0dDQgE8++YTPIlOcx+PB7NmzMWfOHD6LEDJExxxzDC666CIUFBTwWbImXYD1pz/9CRse3YCSdXdDoz2Tzx6WgwcOovruSpx3znmofqSKzyaTyEQLsN5//308+OCDWLp0KRITE/lsQgghMfTvf/8bra2tWL9+PZ8VYuJFUBG4XC5UV1fDuGxxzIIrADh+xvEwFi/GC889j82bN/PZhIyZmpoa3H///RRcEULIUXDllVciIyMjqlhgUgVY62vW45LLU/GDLD2fNWJnnKPBNT/Pwfo/Dh61EnK0fPHFF5g9ezafTAghZJT8+Mc/xq5du/jkEJMmwPrvf/+Lbf/ehh9dn81nhXhn19tYf28Vfv3T23HTD25A8cIi/PmBP2L71nZU3mPFh3u6+UUAAAbj1fDv20ezJBNCCCFT1DHHHBPV07mTJsB69tlnkXzhuUg6/yw+S2JzrR1lt5RiW/O/4e3pw8EDB9HzwUdoaXwR6+5ei44XX8X2lg5+MQDAcdOPw6XZevzrmX/xWcNitVqRl5cHn8/HZ405QRCgVCohCAKfRQghhJBBTJoAa1vbyzg/7QI+WeKV517GU3/8GwDgigVX4v7Hfo+nBDsq7dW48fafieW+iTDv1YX6i7Bj+w58+eWXfBYhhETtyJEjeOWVV/CHP/wBy4qXYdHiRcj/WT5uLbgN5ffdh3/84x/o7pZvTSeEjH+TIsDav38/3tvjxjkXavks0eHDh/FE5eMAgEV3/hxLf1+CCy9NwQzFTCSemwRj0WJcfs3/AwAce+yx3NL/55wLk4GBLklCCBmqDz/8EKstq3FJ6iW4/fbbsbWtBV8d+zXiz0/AmfOScMLpJ+K93vdR/cdqGAwG3LT4JjzzzDP8aggh49ykCLA++ugjAIB6bjyfJXr79bfw+WefQ3WqCteZruezAQBX5PwIs5SzcUlmGp8lOva4Y6H+Xjw8Hg+fFROBQAAlJSVQKpXiP7luOrfbjYyMDLFMQ0MDSkpKYLVaJeXsdrtkXRkZGXC73ZIyfLmMjAy88847fBFAZn385wmCgLy8PNTU1ETcfkKmoqrqKvz4xz+G8PoOXH9HPh5uWo/idcthXLYY1/w8B4abrsF1t12PW8sKcf8TFpSuL8PJc1W455578LObfhbVwFpCyPgwKQKsffv24ZhjjsGJJ53IZ4k8730XEJ11/tk49jj5Fqp56RfjibaNODflPD5L4oRZJ8Dv9/PJI+bz+bB48WIAQF9fH/x+PxwOBwwGA+x2u1hOEASkpqaiuLgYfr8ffX192LVrF+rr64PW9l0wZLPZ0NXVBb/fD7/fj9zcXJSWlkrGfVmtVlRXV8PpdMLv96OhoQG1tbWSdcmV6+rqgiAIKCkpQSAQEMu1trbC7XaL+6DXx/6pTkImEq/Xi8U3L8amv9twi/lWlFTejUuvugzTj5/OF5XQJJ+J63+Vj1VPrMHMOQr87Gc/w6ZNm/hihJBxaFIEWBgYzxDJV19+BQCYeaKCzxqGI5g2bRqfOGItLS0AgPLycigU322nXq9HWVkZbDYbfD4fAoEAbDYbTCYTcnJyAAAKhQJFRUXQ6XTiunw+H2w2G4xGI1QqlZi+cOFCeL1e7NmzBxhoCWtqakJxcTG02u+6WLVaLSorK8VlgstVVlaK5VQqFcxmM+rr67F7925JeaPRKO4DIVNZT08Pbr7lF/j68AGY/7hyWNPIzDlNhZvNJtz4ayPuv/9+/GkDvf6GkPFuUgRYSqUSR44cwZf7wg88P26g1erbQ9/yWUO2f99+KJVKPnnEuru7odFoQgKTzMxMeL1e9Pf3IxAIwOPxID09XVIuLi4OarVa/FulUqGxsRH5+fnAQOuTUqlEamoqXC6XWK6/vx8AMH/+fDENA+sLDthYubi4uKBSQHJyMrKysiRdpjqdLqQcIVPRN998gzuXLcXJp52MX1mWQqka2XXjitwrcYv5VlQ/UoV//OMffDYhZByZFAGWRqMBAPR9GP5dbKecfioA4OOuHj5rSL45+A32frJX/MxYCQQC6O3t5ZND9Pf3y754WqFQhGxT8HippqYmOJ1OOJ1OSeAUbiwZH7CFK0cICa/8/nJ8+dUXWLLyNj5r2H6QpUde4Y2499578e677/LZhJBxYlIEWAqFAsnnJeM9V+jgbebCH1yE46YfB897H0IIM8/VkSNH8PymZ+F2fdd9Jue9N7/LCw5SomG1WkPGKgVTKBRISEjgk0PwgQ/DWrYYt9uN6upq1NbWwu/3o729XezaC8YHZQwfyIUrRwiR98orr6Dxn43I+1U+jp85g88ekawbrsL89Euw7uF1fBYhZJyYFAEWAFx5xZV4+7W3+GTRSXOUuOoGAwBg3T1rUVfxKN7/73s4EPgaAPDR+x6sW/4g6h58FH9+4I/c0v/nze1vID1D2j0XjcTERHg8npAAK7hLMDExEZ2dnejpkbaytbW1Qa1WIy4uTmyp6ujokKyLD4j6+/vhcrlCAqOdO3dKughZV97OnTuDSv3f8ky4cnv27EFra2vI5xAy1W14bAN+eHUmklPO5bNC/O+zz9HueAVbHt+MV557GZ94Bm/N/snPr0Hbtja0t7fzWYSQcWDSBFjXXHMN3vuvG+9HaMW65TcmaC9MxpHDR/C87VmYb7oLi/T5uD5lAUry7oTQuh0AcLXxp/yiAIADgQPY0bIduQty+axBzZ8/H16vVxzIzgaNB4+lys7OhlqtRk1NjRg8CYIAi8UiDlZXKBQwGo2or69Hc3MzMNB6VVNTA5fLJb70l42hamtrE7eBtWoF02q1KC4uRnV1tTh9g8/nC5l+QavVIjc3V7acyWRCSkqKpDwhU9mbb74J52tOZC64gs+SCOwP4JHfrkNB9hI8bH4If6t+AlUrKnFnzh2wFD2A/IsX4nnbs/xiAIC5Z5+BtCsuxd//8Xc+ixAyDkyaAOvcc89F9o+z8e9/fhfAyJk+43g8+Ld1eKDOgmtuuhanJZwm5ilOPAFXXpeN8g0P4Krrv2vp4r349+dx6qmn4rrrruOzBsWezCssLBQHmxcXF4uD0DEwMH3jxo0AgPj4eCiVSixfvhxOp1NSTq/Xw+l0orq6GkqlEvHx8Zg3bx5MJpNYRqvVoqGhAU1NTeI4rNLSUjzxxBPIysqSBF75+fkoLi5GamoqlEolkpKSsGDBgpBuULPZHFLOaDSiqqpqyC16hExmW1u2QqtLxvfOmstnib45cBD3mn6LV59vw5EjR3DyKXOQfNG5ODnuZADA66/+B99++y3ecv5fSzJv/v+7BFsdW3HgwAE+a0jYQzD8D6tI2Jx9kYY+RIutayifj4EfeXl5eZJpbKJhtVpHfX4+et0YmXZEZn6DFStWoLS0FMccM7Hir3fffRcLFizAopKbkXH15Xy2rJ4PPsIxxx6D+DNOj7i/H/z3fVT+Zi3WrVsnTo8wnvh8PhQUFMBsNtO8UyPw4IMP4q677sIpp5zCZ41LhYWFIVNqkLF3489uxBkXnolrfh7+WvFkVQOerm+E4kQF7nvs99DqvntLBAB86P4Qa5auwmeffAp9djruqfytZFnm20PfovjaX+Mvf/kLMjIy+OyouN1uLFmyBMnJydizZw8aGhpkx2vyAoEAVqxYAQCoqKiYMD+y2P5WVlaO6rVSEAQYDAY4HI5R/Rxy9B0+fBhr165FRUUFnyURPqKYgM4991zcfc/dsK3fiA/++z6fLWvuWWcg4czvRQyu9u/bD/sfnsKC63LHPLgK96uxrq4OGJg2gRAytt757zs4Q3smnyw69M0hbP2nAwBwc8kSSXAFAGdqz8SCm79rKT9xdvgJlI897lhozjlTnNduOHbu3Am1Wo1f/vKX4t+EkJELH1VMUIUFhci9Lhd1qzZEHWRF8qX/C9Q9sAFxqlPw4JrI0erRoFAoUF5eDo/HI3YjKpVK9Pb2YuPGjZJJRQkhR5/P58PBgwcRpw4/F9yHe7qx/4v9UJx4ArIWXsVnAwCy867CTUWLkXvLQj5L4uRT56Cvr49PjgqbkFiv10Ov1yM3NzfkAZrgsnl5eeI1R+7XO3tauqGhQSzHXs/FuszYv+CuM76LMPhv/jVewa/6kusi5D8neBn2FgyXywWDwSD+ULXb7SgpKUF5eXnIMvxryZRKpWyXJL+d9LoxMukCLAB4cM2DyMrKQvU9lRBelJ+SIRp7dr+LqrvWYdbMWajd8FjEl0AfTWwSUfb6G7/fT+OgCBknvv76uyeTZyhm8lki36ffvaoqfm48jpt+HJ8NDCx/w+0/w/eSwo/jAoDjZ0yXDYiiwZ4CzszMBAYmNZZ7M4Pb7UZOTg70er14zZk1a1bI67kAoL6+Hnv37hVf45WWlobU1FTYbDbx9Vm1tbVYvny5JFiSY7FYAECyLv5VX8GCu+XYdhYXF4vLsPGrOp0ODodDct2sr6/HrFmzJNPaBHcnsvU5HA4UFhZKgh7+NWL0ujGCyRpgAUCFpQJFdxbhycoG1Fvq4NnzIV8krM8//Ryb/2xHtbkS6ZelY9PGp3DSSSfxxQghJMT06d+9X/CbAwf5LNHBgUHp4YKroTh08BBmzBjePFttbW2Sp4DZmxmCH4IBgC1btkCtVqOgoEBMW7p0qeTBGiYrK0ssp1AokJ6eDp1Oh6KiIjGYYW+OYG+ICId/JZjRaBTfaiHH4/EgKytLMlQiPz8fjY2Ng7bu63Q6LFwobS3csmUL0tLSJE9Jp6SkwGQyiceIPRFOrxsjvEkbYAHAr3/1a2zevBknHDMTa5da8KcVf8C2pn+j5/2PcPjwYUnZTz/eix1bt6NhTR3u/XkpPnH3oqamBmtWr5GUI4SQSE499VQcc8wx+N9nn/NZolknzQYA+H3/47OGbJ9vH0499bs3VQwFu+EHTxWjUqmg1+vR1NQkti4FBt4yodfrJUFKuMmR5V73NVwJCQlDWhebDicpKUm2Gy8SNtdgMLPZLLZysa7H+Ph4ScsdvW6MhDOpAywMnKi1j9bCbrdj3vdT0NH8Kip+/XssvfoO/PbG5Vjxs7ux7Jpf4f5b70Xz408jXqnGo48+iqcbtyA7O5tfHSGEDOps7dn46L2P+GSRZmAA/N7evdj7ceirr4aip+sjnHPOOXzyoNikw2zqGPbPYrHA5XKJg90D3FsigrF5944ml8sVtgVLq9WipaUFJpNJsl9DDbaY4PFXBoMBtbW16Ovrk7TchTs2/Fs3wpUjk9ekD7CYlJQUlP+uHP9uaUVbWxv+9re/oWJNBSy/t+Avf/kLtm7dCmG7gHUPrcMVV0SeHJAQQiLRX6rH+2+EH18055Q5SP1/PwAAWO5chZ4PQoOxvb17sfrX9+Ox1X/ms0Tv7noHB74+gIsvvpjPiogNbi8rK5OM5WRjnUwmkzjYXSHznlOmu7ubTxpzCoUCVVVV4v6UlZWhsLBwyEEWm8A5LS1NHAsVPB8hE+7Y8G/XCFeOTF5TJsAKplarkZaWhquuugo//vGPcdlll9HJTwiJmSt/dCXe7HwDn38avptwyd23YoZiJno++AgleXdi7W/WoHXLVmxr/jdq7vsD7rphKXa2v47tYd6dCgC72l7HZRnpOPnk7yYnjRY/uD0YGzfFxgWxrkBBECSDy1nX4XhXUFCArKysIQeDrOWO76bs6elBZ2en+He414jR68bIlAywCCFkNKWnp0N7rhYvN/2bzxKdrklA2R/LEac+BUeOHMFr/xbwp/vXY/29Vfj30y0I7A9gzilz8PvH5ceB+vv/h1eeexk/uzG0VWUwbW1tIYPBg2VnZ0sGu7NB62y+PQBobm6WfYpwLNnt9pCpHPhgknXdDdZlx1ruggNL1qoVHDjR68ZIOBRgEULIKLi94HZs/YcDfZ5P+CzRBak6/Pm5WpTV3IeFt16PtCt+gAtSdZiXfjFuL/sVap55FHPPOoNfDADwwt+ewwUXXoCrr76az4qIDW5n7zeVww92V6lUqKurk8wx1dHRgeLiYn7RMcW/9ouNnQqeTZ3tW2FhIfLy8sJO+aBQKFBRUQGNRoOkpCRxgLvRaERZWZkk8OI/l143RjDZXpVDyEjRq3JILBX+shC+Lz/HryxL+awR6fz3DjSs/QsaGhpw2WWX8dmEkFEU7atywgZY99xzD1544QU+i5BJa+bMmXA6nRRgkZj55JNPcP2N1+OCH1yIny1bxGcPi/uNPVj/20fw66Jf486iO/lsQsgoi0mAtWPHDj6LkEntlVdeoQCLxJTT6cStt92GH/zoUhhLFvPZQ/LmjjfQUFGHBdfl4vf3r+KzCSFHwYgDLOoiJFMRdRGS0fD666/jN8vvwmzVbCy4bSHO+v7ZfJFBPfdkM579WzNMt5nwW/Nv+WxCyFESbYBFERQhhIyyiy++GE83bsE5ieeg8jdrsfHhv6Lr7Q/4YiEOfn0ALze9hNUF90FwbMe6desouCJkgqAAixBCjoI5c+agqvIR1NXV4ciXh7Gu5EGsuf0B2P6wES893YrX2/6D3R07IbzYgWeeaMKGe/+I5XnFaPm7Awtz89C6tUV8Lx8hZPyjAIsQQo6iyy+/HA2P1+OFF17ALYtvgeLQDOzc6sQ/a2zY9PDf8OLG57F3Tx8uvmA+/lTzJ2zv2I7ipcvoMX5CJhgKsAghZAwkJSXhlltuwfo/rMdzzz6H13a8BqfTibaX2/DUxqewcsVK/OhHP+IXI4RMEBRgEUIIIYTEGAVYhBBCCCExRgEWIYQQQkiMUYBFCCGEEBJjNNEoIUEm4kSjhYWF2LRpE59FCCFkFPzud7/DQw89NOhEo2MeYAmCgLa2NpjNZj4rIrfbjSVLlqCyslJ8S/pEEggEUFFRgZtvvhlarZbPlrDb7bDZbKirq4NKpeKzSQxNxABrzZo1fDIhhJBRcuyxx47/ACsQCGDFihVISEiYcgGWIAhYvnw5GhoaBg2wyNEzEQMselUOIYQcPUflVTneh/8w6D9CCCGEkKlmRAHWFy+9jG8++yzsv/2vOflFRD6fD4sXL0Z9fT0sFgsyMjLgdrvFfLvdDqVSKf6zWq2S5eWwZUpKShAIBICBVrKSkhLJugRBkCwnCAIyMjIgCALy8vLCfqbb7UZGRgbsdrskXY7VapV8ZvA22e12GAwGuFwupKamip9jt9tRUlKC8vJyKJVK8ZjY7Xbk5eXB5/MBQ9heBG0zK9PQ0ICSkhLZsoQQQgiJjREFWAAw+/9lYu6aVSH/Tky7hC8qoVKpsHHjRphMJpSVlaG9vV3sKrNaraiurobT6YTf70dXVxcEQZAEKTy73Y7CwkLU1taiqqoKCoVCDOIAoK+vD36/Hw6HAwaDISTIcrlcsFqtqKurE8tZLBZJMKXVatHe3o78/HzJsjyr1QpBENDV1QW/34++vj4AwPr16wEA+fn5cDgc0Ol0cDqdku7R+vp6zJo1C36/X3JMeNFsryAISE1NRXFxsbgdu3btQn19vWRdhBBCCImtEQdYseZ2u9HU1ITKykoxuFCpVDCbzaivr8fu3bv5RSTBVXDw09LSAq/Xi6KiIvE9Xnq9HmVlZbBarWKLEGM2m8VB5CkpKTCZTOju7paUGUwgEEBvby/0er24LoVCgaqqqqjGmel0OixcuJBPlhVpewOBAGw2G0wmk/iCWIVCgaKiIuh0Osl6CCGEEBJb4y7A6u/vBwDExcVJ0pOTk5GVlQWPxyNJf/TRR1FYWIiysjJJcBUIBNDR0YG0tDTMnTtXskxmZia8Xq/4WRgIbPjPHA6FQoH09HTZbs9oqNXqqLZjsO0NBALweDxIT0+XvCQ2Li4OarVaUpYQQgghsTXuAiw+gBpMY2Mj8vLyYLFYQrr9MNDlFh8fLxkPZTAY+GJh9fb2hu2WDCc/Px9O53fjz1JTUyXjqUYb297+/n54vV4+GwqFAhqNhk8mhBBCSAyNuwBrqDd/h8OBP/3pTzCZTLDZbCHBUFlZGfx+f8i/SOObYoGN12JjyNRqNZYsWXJUgixEaKliLVuEEEIIGT0jmgfrvZzrceqdv8KJPwgd0P7FtjZ8/vfNOMv2Vz5LJDcPFpvfqri4WNLlJwgCDAYDHA4H9Hp9yDxYcsuFm6CTT5ebk4ptGwBUVFRIutmGg99+uc/kt4vh0+WW5bcXA/XI/mbbz45Tbm5uVGPCppqJOA9WYWEhNm7cyGcRQggZBffdd9/oTzT6Xs71+ObTz/hk0YzEMyMGWBh44q63t1cSBFitVjQ1NYkBhM/nQ0FBATQajViOD7CGulxwIBZNwBJtgBVuOfZkIQuS5LafD6QYPj3a7WVBHRv8z8rU19eHPBBAvjMRA6wHH3yQTyaEEDJKpk2bFlWAFTmCGsQZ6x/GWba/hv33vQd/zy8SIjMzUxwnxcZQmc1mFBcXi+OXkpKSYDQaxekXwikoKIBarUZpaSl8Pp84FQQAcRxWamoqKisrhxVcRDMPlkKhEA968Niv4OAKAObOnYu0tDQYDIaI00+MhF6vh9PpRHV1NZRKJeLj4zFv3jyYTCa+KJnApk+fTv/oH/2jf/TvKP0brPGJGVELFpl4WKue2WyekK8YGm0TsQWLXpVDCCFHz1F5VQ4ZvwIDM9jzrWN1dXXAwLQXhBBCCBkdFGBNUgqFAuXl5fB4PJKuyt7eXmzcuFEyxosQQgghsUUB1iSmUqnQ2NgomZ5isHFshBBCCBk5CrAIIYQQQmKMAixCCCGEkBijAIsQQgghJMYowCKEEEIIiTEKsAghhBBCYowCLELIqLLb7cjLy4PP5+OzYiKaNyyMJbvdjoyMjJi/6J3Ndcf2e7SP80j4fD7k5eXBarXyWUfdaNVHLISbv3Ak7Hb7iI671WqN6fZEgx2HkWz3eEABFoddCNhFi/97pIZ7MxjOCTfcbRcEYdQuQG63G+Xl5YN+WYe77WT8yc/PR2NjI829FmPNzc0AgJycHICOMwkjJycHvb29dC0dAxRgTRAKhQJVVVUwm818VlhsHqzhvHdxtGzZsgX79u3jk0OMx22f6N71fYxbn30Yc9ffDNUjP8OPNpbi72+/zBcjE4Db7camTZtQVFRE89qRiBQKBYxGI2w227hs3ZzMYhJgvfXWW7BarSguLsbDDz88Ki0fhJDh2+X9AFdu/C3e6X8fPz0nCb+4UIdZxx/Cr174E6o6m/jislgrKnsrAN/KabfbUVJSgvLyckm+XNcVa8ll61IqlSG/sMOtL1qCIEjWH66bw263S/bp2WefRUZGhvjyecZqtUrWx++TXLm8vDx8+umnfBGA+1ylUhnSOi0IAvLy8lBTUyOWYdu0ZcsWnHnmmZg7d65YXu4483UWvI5grMU4eFvkuoaiqTe5cps2beKLAFHUEdv+mpoacftYmVh39Q1WHwxfv+x8Cd4O/niGWx9fLty77aKpx0jfl5SUFGg0GrS0tIjlh9qbUlFRIX42v78Mvz/hyg1W75PFiAOshx56COnp6aiqqsJf//pXPPLII0hNTR3SC2ijObH5i5tchfCVy19sMIKK/eqrryQnuNy6+c8Pty88dmFkXXNs2eATP1wXIb8/wfnhutn4Yym3L8HYevjP5sldBNgyLM9isaC+vh7x8fEQBCHsBbS3t1ey7cH7wl/g+G3n6yHczWIqWbHtcVxw6mm46YLzoDvtVJw952T8+KxE5J2XjFWvPoV3+j/iF5Hw+XxYvHgxAKCvrw9+vx/FxcVYsmSJ5AJaX1+PWbNmwe/3o729HVqtNmgt33G73ViyZAkqKyvFNww4HA4UFhaG3DSiWZ8cu90Og8EAh8MBv9+Pvr4+AMDixYsl54vVakV1dTWcTif8fj8aGhqwZs0auFyuoLV9V663t1fc976+Pmg0GqxatUo8p9i5LAgCurq64Pf7YTabsXLlSsm62PqCP7erqwuCIISco62trXC73eLn6vV6+Hw+CIKA9PT0iK1XcnXmcDhgMBgk1wS3242cnBzo9XqxPgDAYrGIZVi5aOpNEASkpqaiuLhYPFZutxutra2S9UVbRwCwcuVKmM1m+IPeRpGfnz+kcyKSaOojXP0uWrRIsi6fz4eCggIYjUbxODmdTjQ1NQ163GfNmoX6+vqQ9UVTj4jwfVEoFEhPT5e0Ymm1WrS3t0fVS1BfX499+/ZF/O7L7U9xcTFSU1Ml58dQ6n2iG1GA9cILL2D16tUAgP379+Pw4cNi98+qVavw6quvckuECndiB9/MrVar5KRmFbJ+/XqxjFzl6vV6FBQUiJU2kootLi4WvzByF9dov1ThtLa2wmazoaWlBX6/H7W1tSEXLh6/P3LHjhfNjYLHuusidU8GAgGsWLECCLoIsO2x2+1iF2dZWRlMJhP6+vqg1+vF5fkL6MyZM4PW/n8KCwuRmZkprh8D5xrbdrnzADI3i6nko32fYUevG2mnn8JnIeW00zB3thKOD17nsyTYL9/y8nLxpp6Tk4O0tDTs3LlTLKfT6bBw4ULxbzlbtmxBWloaUlJSxLSUlBSYTCa0tbVJykazPp7P54PNZkNtba14jikUChQVFcHr9Yr74na70dTUhOLiYvFGpNVqUVxcLFkfK2c0GsV9Z90unZ2d6OnpAQDs3r0b9fX1MJvN4jgovV6P2tpa2fVVVlaKn6tSqWA2m1FfX4/du3dLygd/LgD09/fD6/VCo9FIyvHk6kyv16OsrExyo92yZQvUajUKCgrEZQsKCpCVlSX+zcoNVm+BQAA2mw0mk0kcG8beixq8vmjriDGZTJLPjaVo6yNc/ZaVlUnWx7Y9OztbTNNqtcjNzUVHR4d4rZI77kuXLoXJZBL/xhDqEYN8XzQaDbxeL/r7+/msQWVlZcl+97ds2SKWYefH0qVLxbScnByYTCbYbDYEAoEh1/tEN6IAq7KyEscffzyfDABQKpX44x//yCdLyF3g2IltsVjEFo7e3l7o9XrxpGY36+AbvlzlshN3z549I67YsrIyyXLp6enweDzilyXaL1U4Op1OMp4iOzsbWVlZ8Hg8fFEgzAWKHTtBEGQDxmhvFMMRCATg8Xgkv6qHMo4q2gtocD2oVCoYjUZJPchdtORuFlPJ519/AQA45cQT+CwAwOwZ09Ef+K5MON3d3dBoNJIbPfseBtevWq1GXFyc+Lccs9kstkIIAy2w8fHxIb/cEeX6eOECkLlz5yItLQ3d3d1iOQCYP3++pBy/HPulr9frxVYMpVIJg8EgKefxeJCVlYXk5GRJOr8+9rn8fiUnJ4d853U6XUi5cMvz5OoMADIzM8Ubrdz1FQN1y293NPUmdx2AzPqirSMmISEhZD9iJdzx5OsjXP0mJiZK/g5+2MAd1FUa/CMv0nFPSEgQ/0aU9chE+r6w9OEEWPznKwbugexew/aHrydWjl2jh1rvE92IAqx3330XBw8e5JMBAH6/H2+99RafLMF++fIXuOATm1WQxWIJ258brnLZDV6v14+4YvkvEQDJyR3NlyqSSF8MOeH2R6/Xh32SKNobxXCoVCro9XoUFhbKdtsNhq+7cOTqgYl00eKP01TyvdnftVx9+D/5hwt8gQNIVKr5ZBE7rrES/P0wGAyora1FX19fyC/34erv7w/p4pMT7sdLXFwcdDqdJI11S8fHx8Pj8aCrqwsOh0NSJtw1JC4uDqeddpr4d7jPjVY0y0dbZywg4snd6KOpN3Zd4vHri7aOjga5/ZcTrn75a4svaIhCamoqcnNz4ff7JS1d4Y47uGtctPU42ga7Pkfan2Djqd6PhhEFWLNmzeKTJJRKJZ8UwuVyITU1VRwvo1QqkZSUJOmvz8/Ph9PpBACxbHCwFU3ljnbFRvOlGo5wX+rh7k80N4rhMpvNcDgcaG1tRVJSEpRhxkjFWvCvcbnzgL+4TzVxitnIP/+HeLXnExw49K0k76VuD/YdPIAF2ksl6aMlEAigpqYGaWlpYldyNC2cDLvJR+o6lwuQ5PA3Rob/bgmCAIvFInbFh/sBEy747+/vx969e8W/w31utKJZPtpzPtyPD/7GHm29xcXFQa0ODdb59UVbRyPFxrdGugbJ7b+ccPXLX3Pq6uoAQDJOixfuuIO75kdbj6Ott7cXgQi9MJH2J9jRqvfxYkQBVlZWVtgga9asWbj66qv55BBZWVniicj/C/4Cs9YXNvZGrVaHDLKLZLQrNpov1ViL9kYxEvqgsU9OpxNer1cyDm40hfuS8xf3qejBH92K2dNnYcPru9HS9RG2ffgR/vbmO9jm8eDRnyzFKSecxC8i4pv5gw314QEWBPO/iHt6etDZ2SkpK4fdwPmbGoJulKwMP56LfQa7UbIW4+AxZJC5YXo8HtmuOn79Go0Gra2t2LNnjySdX1+4z92zZw9aW1tlz+Fg0Xb1JCYmynb9t7W1iS3m7AbODyvgf6xEW2/sO8gPi+DXF20djZQmzLij4B6DaOsjXP0GB0TsWqPhutR8Aw8mMJGOO3+tiqYeo8GOQbTlg/Hf/UAggI6ODrG3INL+dHR0iMfjaNX7eDGiAGvVqlVQKpWYPXu2JF2hUECtVuPuu++WpPPmz58Pr9cbcsIO9iuVjTVyuVzo7+8Xu6f4KDsQ9OTdaFZstF+qWOLHBzCRjl20N4pYYQOG5S5woyHSl5w/TlPNyTNOxEuLrSi9zIjpxyjx1TczYDhLj+2/qMS15/yALx6CjS0MfqCABez8IOxI2A04uI4CA60j0bTIsu+63CBtNjaGjc1j4zgR9BlqtVrcFzZGsrq6Wvyh5na7UV1dLfmeaDQauFwuyQ2Y7Xsw/cDAY6vVKm4bW18wuc/1+XywWq1RjUWMFGQGy87OhlqtRk1NjWydsR9XCxcuhNfrFX8kYuAHY2trqxhQRVtvioFxrZ2dneJEqMHrY6Kto5FKTk6GWq0WB2P7BsauBg8jiLY+2ID+4Pplx5MPWPmAiN9/BI0RDj7uzc3NIWMRo63HwXg8niEFZMFaW1sl27l+/Xp0dnZKBtTLnUdsf9g14mjV+3gxogBrzpw5ePHFF5GamipJz8rKwosvvogZM2ZI0nnsxF6+fLmku481RaekpIhBEv8rua2tTTLgcOHChejs7JQ8Wdjc3CyeBKNZsUP5UsUK25/gJw35Y8eL9kYxHD6ZqRwCA79e0tLSxPl6EhMTQ34NxZLcl5y/WUxlhfMM+GdeGZ7/2e+xKvNmnBv3f/MoRaJSqbBx40YAQHx8PJRKJZYvXw6n0yk+dBANhUKBiooKaDQasRs5Pj4eRqMRZWVlIcGxnKVLl0qWFwQBdXV1khtNfn6++Cg7+4yEhISQVluz2Sw+Sq5UKrFkyRKsXLlSMmZKr9eL0xGwYQw2m018Sjr4+2Q2m6HX68VtW7JkCQoLC8X84HLBn5uUlASj0SgOIo+Efff5ViJepDrjeweam5shBE35goEHSpih1JtWq0VDQwOqq6vF9X355ZchY+yiraNw7FHMg6VSqbB27Vo0NTWJx1mv14f0MERTH4qBhzqC69dqteKpp54KWVdubq5k6EtiYiJqa2sl9wiVSoW6ujrJce/o6Ah5ijXaeoyEXYuDAzL2Yzyap9xNJhO+/PJLcTsFQUBzc7P4cBrCnEc2mw1dXV2Sa8RI630imXbkyJEjfOKKFStQWlqKY46JPv7at28f9u7di/j4+LDdhuHY7XbJRaisrEzyBQgMTAEQHNlnZWWFXFR9A1MlsKBGrowgCJJB3fxnsXUYjUbk5+eH/M3Y7XZUV1ejoaFBPMmsVqskWGGPZweXcw/MJVNcXCyuz263w2azSbaVfS67GLBjkJCQINneSPsjt+18eZPJhNtuuw133HGHuE2CIGD58uXiNvPbEg5//DGw/oqKCvEixfbf5XKhtrYWOTk5svvFbzv/NyNXD/x2BN8oIm0/ADz44IO46667cMopoVMajEeFhYVDmnOODE4YmOqEv3aMJ+x7VFlZKd685K4jw8WuN+np6VHfxKcqu92Ojo4OyXVuvJkI5/REcvjwYaxduzbsxLBMzAIsQsarodwsKMCaOuR+7ET7Y2I84G/sbI67od7orQPzDAbffOV+uEx17Mepw+EQg1q5c2i8Gcr1j0Qn2gCLIigyqVit1pCnhlhXMT8dCJnatFotKisrJV1/rGtovAdXCHrJc21tLTIyMoY8Ho7hu1xZ1w7fBTTV6QcmjWVdW8qBJ8YrKyvHdeDS3NyMhISEcb2NkxW1YJFJJdru5HCoBYsQQkgk1IJFpiQ2EDV4uo/JOHiSEELI+EYBFiGEEEJIjFGARQghhBASYxRgEUIIIYTEGAVYhBBCCCExFvYpwnvuuUd8vQAhU8GcOXPgdDrpKUJCCCFhRfsUYcQAa/fu3XwWIZPa1q1bKcCKMbnJO/lZxwOBACoqKnDzzTeP2txL431SyNGa3JOfaJI/9uOJ3LkyVkarPmKB1SmAIU8sG47dbkd3d/ewj/twJ7odiXBvOBltIw6waB4sMhVNlXmwDn57CMcfexyfPCqiuWnyr2caDVM1wOJnfB/PojlXjpbRqo9YGI0Aiw/Eh4oCrFAUQREyRfz3Mw9ubn4I6j8sQvwfFuOHT96NJ10tfDEyibjdbmzatAlFRUVH7aZHJiaFQgGj0QibzSZ5EwYZPgqwCJkC/tP3Hn701G/R5f8QN5x7LkwpFyJOcQTFW2vx0I7NfHFZgUAAJSUl4mtClEolBEHgi8HtdiMjI0Mss2nTJr4I7Ha7+Eoju90Og8EAl8uF1NRUWK1WsRy/LqVSCbvdHrKukpISlJeXQ6lUIiMjA263W1ImEkEQJOsvKSlBIBDgi8Fut4tlMjIy8OyzzyIjIyPkGFitVsn6+Fc3yZXLy8vDp59+yheJ6pgLgoC8vDzU1NSElNmyZQvOPPNMzJ07VywffOyZaD4HMvXR0NCAkpISSZ3JlVPK1JtcOblzBVHUEdv+mpoa5OXlScrY7fYhnxORBJ8HSqUyZN8Zvn7Z+RK8HT6fT9zeSOvjy4VrOeHL8Z+HQb4vKSkp0Gg0aGn5vx9erI7k6k9ORUVFxM9HFPU51HLjFQVYhEwBK156HPPUp+Nn55+L805RIVGpRHZSIm44/1xUdNjx3888/CISPp8PixcvBgD09fXB7/fD4XDAYDBIbsSCICA1NRXFxcXw+/3o6+uD2+1Ga2tr0Nqk8vPz4XA4oNPp4HQ6xaZ+1qVXWVkpzsrvcDhQWFgYcvOvr6/HrFmz4Pf70d7eHnWXDgvuHA6HuL0AsHjxYkkAYrVaUV1dDafTCb/fj4aGBqxZswYulytobf/XTcKOUV9fHzQaDVatWiXeGFgwIAgCurq64Pf7YTabsXLlSsm6Ih1z/mbX2toKt9stltPr9fD5fBAEAenp6RFbr6L9HLm63bVrl+S1VBhCvcmtT+5cibaOAGDlypUwm83w+/2oqqqCQqFAfn7+kM6JSPjzoKurC4IgSG784ep30aJFknWx7lCj0SgeJ6fTiaamJslxd7vdyMnJgV6vF8vNmjVL9rjz5YqLi5Gamhr190WhUCA9PV3SiqXVatHe3h5Vt2F9fT327dsnnkfFxcVYsmSJJMiKtj6jLTeeUYBFyCTn2fcpnH3vI+30U/ksXHjqqdAoT8bW7l18lkRLSwu8Xq+kq0mv16OsrAxWqxU+nw+BQAA2mw0mk0l8EbFCoUB5eTmysrK4NQ5uy5YtSEtLQ0pKipiWkpICk8mEtrY2SVmdToeFCxdK0gbj8/lgs9lQW1sLvV4PDGxvUVERvF6v+Cve7XajqakJxcXF4o1Iq9WiuLhYsj5WLviFy6zbpbOzEz09PQCA3bt3o76+HmazWRxkzl4kHIx9fnl5ecgxl+vG4V/03N/fD6/XC41GIynHi+ZzwtVtUVERdDqdZH3R1Fu49fHnSrR1xJhMJsnnxhKr38rKSvE8UKlUMJvNqK+vFx8KC1e/ZWVlkvWxbc/OzhbTtFotcnNz0dHRIQZsW7ZsgVqtRkFBgVhu6dKlMJlM4t+sXFpaGpYuXSqm5eTkwGQywWazSVp+In1fNBoNvF4v+vv7+axBZWVlSc6jnJwcpKWliTMSRFuf0ZYb7yjAImSS+9/XXwIA4k6Qb8U4cfpx6P9qH58sCgQC6OjoQFpamqSrCQAyMzPFi3EgEIDH4wlpMVEoFIPe5OWYzWaxFYJ1FcTHx4f8cgcAtVqNuLg4PjmicAHI3LlzkZaWhu7ubrEcAMyfP19Sjl+O/dLX6/ViK4ZSqYTBYJCU83g8yMrKQnJysiSdX193dzc0Go3kWII75oxOpwvZf5bPp/Oi+ZxwdRsXFwe1Wi1ZLpp6C7c+/lyJto6YhISEkP2IlXDHMzk5GVlZWfB4vmsFDle/iYmJkr/z8/PF96SybjilUgmLxSKWCQQC6O3thV6vlzzxqVAokJCQEFKO33/FQIuUx+ORBFiRvi8sfTgBFn8esc8XBAE+ny/q+oy23HhHARYhk9wZJ33XctX1Pz+fBQDo/+prnDUnnk8OUV9fj/j4eMmYiODggV0UefzNIFrBNx2DwYDa2lr09fWF/HIfrv7+/pAuPjnsxsmLi4sLab1h427i4+Ph8XjQ1dUFh8MhKRPu5hAXF4fTTjsNCLphjkS47Q4W7edEqlv+JhhNvUVaX/C5Em0dHQ3RHE9EqF/+OPmCxkulpqYiNzcXfr9f0tLFAlE5wQFbpHJHEx/g8aKtz2jLjXcUYBEyyc2ZOQs3fT8Tr3h68dU330jyWrs9+OrQIeRqv2uGj6SsrEwc2xH8j43hkGvNwBBu4sECgQBqamqQlpYmjueIZgwIw27y/NiTYHIBkhz+xsjwNwFBEGCxWMQxI6x1gse3ZDD9/f3Yu3cvIBNoDEe47Q4W7edEqtvgG3u09RZpfcHnSrR1NFJyA/950RxPRKhfPgCqq6sDAMk4LZ5cAMsEB3KRyh1Nvb29kpYyXrT1GW258Y4CLEKmgLVX3obTTojDhtffwAsffIjWLg+eePNtvPrRR3js6mWYM3MWv4iIb+YPFnxjYhf54PEjkLkJR4Mtw/8i7unpQWdnp6SsHHYDl/tcdiNiZfjxXOwz2I2SdZns3LlTUo5ft8fjke2q49ev0WjQ2tqKPXv2SNL59SUmJkrGbjFtbW0Ru3iYaLt6ovmccHXLt0RFW2/h1sefK9HW0Uhpwow7Cj7O4c6DPXv2oLW1VTyvwtVvcEDEAkkN16XmG3gwgWEBMP/d4wPRSOU6OjpCPieScF2h0fBwXZHs81kXZ7T1GW258Y4CLEKmgFnTZ8JhtOD+y2/GycefBmA2rtNmotNUjZ+cdQlfPAQbiBv8NJzb7UZ1dTWMRiNUKhUUA4NQOzs70dzcLC5bV1cX8mQYjw8G2A04+IbBWkei6TpQqVTQ6/WSweBssDAbG6NSqWA0GmGxWMSbGvsMtVot7jMbeFxdXS0+DcX2PTig0mg0cLlckhswa9UKxj8cgKD1BcvOzoZarUZNTY14zNn62DGPJFKQGSyaz1EMDNavr68X6za4PtgNL9p6i/ZcibaORio5ORlqtTpkMHbw2Ce588Dn88FqtUoG17MB/cH1y45ncMCakJAQEtjy+w9AHNzOWrwAoLm5OWQs4sKFC+H1emXL8Q9AROLxeKIK4OW0trZKPn/9+vXo7OwUB9RHW5/RlhvvJn2AFes5UHhWqzViN8RoYPOYBAIB+Hw+3HrrrcPePzYOgH/se7QFBgYBy835QkbPLRdmYWOuGU/fUI57M4xIUoZ208hRqVTYuHEjAIjjsFJTU1FZWSnpAtJqtWhoaEB1dbU4TuvLL78cdNwUG7xqMBhQUlICDMyno9FokJSUJI5rMhqNKCsrC/mlLmfp0qWS5QVBCHk9DJsiwmAwiJ+RkJAQ0r1nNpvFR96VSiWWLFmClStXimOmMBA4sekI2L7bbDa8+uqrANfyYTabodfrxW1bsmQJCgsLxXyEOebLly+H0+mU7XbjsZsU30rEi/Zz9Ho9nE6nWLfx8fGYN2+epG4VCkXU9RbtuRJtHYUTzT1ApVJh7dq1aGpqglKpRFJSEvQys8nz50FSUhKMRqM4qB8Dx6CqqkpSv1arFU899VTIunJzc8V1KZVKJCYmora2VhJ4qVQq1NXVQQiaE6qjoyPkKVatVovm5mZJOZvNhq6uLvFJvMGwFqfgAJ51t0dzjzCZTPjyyy/FzxcEAc3NzZIpMqKtz2jLjWeT/lU59lF83YE7aL6XaE/gkXK73TCbzbBareL+CIIAq9UacvOIhi9oLpZoLtqxEhijVxwMZqq8KoeM3Ei+d0eL3DXKHsN3EbLrBwsYSXj2CfDKoolwTo8HR/VVOa/3vYdVrz6F25//A37/6lNwffohX4TEAGsivemmmyTBotzsu4SQ2JD7Bc+6hvjH58cbNl9X8DxI4aZliIS1OPMzabPuIH5KgqmMtSAF92ywLmB+WorxJDAwN1k03c8kOiMOsB7cbkf2pjI890E7uv73Pp59vwOZfzPj4c7oXr8BmVcPyDVFssef2b9wT3wElwv3+gnWLRa8PrmuKv4zgy8ugvDdLMQul0vs1ggEAhAivLZCbp38frBta2hoEB91Ztu2e/dudHZ2hszHw8ZH8JMPWq3WkPWH8+mnn0qOCX8hZYKbn2NRjpDxTqvVorKyUtL1x7qGxlPrazhsIs/a2lpkZGSIY6uGcqNXDEwC6vF4JFN19Pb2YuPGjXRDDqIfmDSWdW0pw3SnjzfNzc1ISEgY19s40YwowHrmvddgFTbjhvPPxeILzsOC5HOwWHcuFmjPwepX7djmeZNfJISVe/UA6+MPDrKsMX79RDSvJ7AOjK1i62LT9K9fvx4IGo+g0+ngcDgkffByr61g6xxsP5ja2lo0NDRIHt9ta2uTnewRQb8gg1uxzGZz1P3VK1euFI8J29cVK1ZItivaVxdEW46QiUIf9PoR9m+i3IjYmKBly5ahvb1dck0aCpVKhcbGRskxCL7ukf+Tn58fcr4M55gfTfn5+RPiB8NEMqIA69Gdz+LShO/hwlOlr+C45PR4pJ0+F3/Z9YIkneeWefUAa9JmAzNZmeBfXKzFZiSvn4j0eoKAzOy57CIV7QnI/0KMdj+Y3NxcSTcg2yb+8WdGMfD0TrhJ7gZTVlYm3jAUQU/4sNc/+KJ8dUG05QghhJDJbEQB1jv9H2PubPn5c047ccagL5ANN99Gfn6++MtIG+PXT+RH8XoCxcC8PxaLZdCnT+TIzYUT7X4w/DwfgYH5Yfh0RjHw2O9gE72Fw6+XPdXF5iGJ9tUF0ZYjhBBCJrMRBVgnzzwBX35zkE8GAOz/5iDmzJzNJ0sMNj8Lw8YtjfT1E4jy9QQYCMScTicAiI/RDifYChbNfoTDT+gXa3xAxONnrQ4n2nKEEELIZDaiAOsnSRfjrU8/55PxzeHDePszP645J43PGjIhhq+fQJSvJ2BYq5Pf70dXVxfUajWWLFkyrCAr2v0Ih00aOFoGC3bjonx1QbTlCCGEkMlsRAHWb9ONOGH6Cfjrm2/jnc988H39Nd767DM88cZ/cfosFX7zg+v4RSTY03D86wkEQRBbi2L5+gk2jol/RNnHvZ5AjkqlgtlshsvlCtneaES7H+EMNsZqsDFag+HXy15JkJmZCQzh1QXRliOEEEImsxEFWCdOn4nmG+/HfHUyNv33v6h+zYnNb+/BFWfOw79ufADTMI1fRIINLl++fLnYKsTml2GDvDUxfP0EG6fEDyrnX0/AxkjxUwu0tbVJxnlF+yoKDOE1GuEMNsZqsDFagwl+JYHP50NpaSnS0tLE1z+oonx1QbTlCCGEkMlsRAEWAJx6ghKPXV2CvmUb4Sr8M/qWbUR19q8wa/pMvqiscK8eYF13+hi/fiKa1xMoBl73gKBXRyhlXrWhGnjfWWFh4aDzTQ1lP8JZuHAhPvzww5AnDjHwwlFwT0cOZR6sNWvWiGPE2Gsi+Eewo311QbTlCJnI2HhOuTn0xgM2F91grfPDEfy6Lvaw0Gh8zkiF+7E8FqJ5Zc9YGY3jZLfbR/TdsFqtMd2eaLDvtNxcnMMx6V+VM5kEwrxehqWnp6dPmLl5xqup8Kqcbw8fxoHD3+CE42bwWWQI2Jx6epl31o0HgiCI89HFcg4mt8zrusYrdm3EwLsthzN8IlZG87VtIzUax2mk9yU2b2SsticawfNkRtrmo/qqHHJ0sPmktm/fLvkVtHv3bng8/7+9849t6rri+FcqP+o2QPFKEmga2mmGrU0n0EhlihS1S6ds0kJB2rxAqwkP8lcVXI2JCUXK/kBdl0hIpFGnirQ4fwzqRRpZZIHUjagVU723khbWZRIlFaGBpjjd3AbRurQd2h995/W+4/vs+xynicP5SJbgveP37jvv5d3je88933GZfhPy8tbkGH72599iRfc21PT8HA/2xXD4LbNVrIIAZbqfy3UJAifgoTByMyEBVpkRCoWwbds2PPfcc8hms8hkMjh06BA6Oztl+k3w5B/vvY3vH92H969N4Im6+7Fr3XdRs3QRfjV0GL/7e+HhcCuPBBRNL9B23bQUDff39fU5NjRdQlNZXt9FAemlfNMbumlyLs3FpzHyXasJJv6AonFINn19fXjqqady2sPtlnnIianXtWnTJpw7d46bAAV8iSLkurymCAv5maDUhGW2dNjx48dzptLU8jr5jsftvEYYuB0/H5Rp0I6ODpdNqaf6Ct0PwsRP3I5seYDDr9/LTybPspef4KGTS8+L7hnW8cwzzzjn1l0vfPjQ1K5USIBVhqiFWIPBIA4fPiy/JoW8tP+tDw+uvBs//c5ahILLcffSpXhkdS0i930bXdafjATadRJQmUwGjz/+OAA42yn/jr+I4/E4JicnMWXLJ9XX12PDhg1IJBLOd3t7e12LXmAgvUSFgfnilYy9OlgVr+1i0lxjY2OwLCuns9Zdqwn5/KF2KJatZRqLxZxrOnv2LOLxuHK0LzujHTt24MCBA47kCuVyqv7l19XX15ejYgEDX6r4letS4e0hP+sCY4vJm23fvt11LHXahnygkzcbHR1Fc3MzwoqsUUVFhdan3I7ygHXPbEVFBaampvDaa68hFAohEok4/54uJvfD1E8wlGPTXb/OT6bPMjz8BKVotzqKReWP8k3BEfF4HFevXnXOH4vFckolmfjQj10pkQBLEOY5716dxJvvX8D3VrpLhADA/Xfeidpld+DkxbN8lxYuAXXy5Emk02k8+eSTznbdil4AaGxsxK5duwDlxVtXV+f6Li/dkjGUXnr00UdRVVXlWixy/vx5pNNp55ijtlxVLBZzOgAqv6KueiX4tZpA7eno6MjxB3Uy2WwWiUQC0WjUEWKma+I15AYGBlyreWGPCkSjUacUiu66QrZAtYqpLwm/cl0EtUeVQCM/x+NxR37LS96MF302kTeD7auqqirnGQOAtrY2RKNR5/9kV19fj7a2Nmdbc3MzotEoEomEa0Sjrq4OW7dudf5fSkzvh6mfyO+F5NhM/WTyLBP5/FRbW4t0Ol1UeaPGxkbX+Zubm1FfX4+BgQHAhw9N7UqNBFiCMM+Z+vRjAEDQo1O8feECZLJX+eYceB23bDaLVCqlHdFoaGjIeany+nMmmEov0YpetcPloy0UfKnTW7CF0hsbG13lVvi1mnLx4kXtdar+yNolVR566CGXna6Y8N69e53RapreqK6udo02kI/5dfGiv6a+JHjJF2o3387xkkDjfvaSN+PHN5E3o+AvrOjHQilvw+14kBiwA/7x8XFXgFVVVZVzHaXC9H6Y+olGhsJ55NhM/QTDZ5nI5yfaXkyAxc9P98myLGQyGWMfmtqVGgmwBGGeU7v0S6moCx9+xHcBAP7zyaf4VvAuvtmYeDzuKmfCX+rT4b8+pJcaGhqcX+oZe3qQBzEjIyOuEi3L7LIkah28YqHOqxD0sucE7GLCKmpA0dTUhN7eXly5csU12uBVh48HbH58qcOr3Ryv9nC8OjXug4yBvBkFfzrUQCSf3deN6f0w9RMM5NjyXT/3k8mzPNPwQJhj6kNTu1IjAZYgzHPuuPV2PFH3ME5dmsC1zz537Tt5cRyf/e8GtqwxyzHS0d7e7uRyqJ9S5KnwUZh8rFmzxpkm5NODRGNjo5PHwj/5ckKok+e5Jyq6UQAdPPAheOeXtVfs1dfXOzkoujbqOlpoAiI/vtTh1W6OV3s4fASG4AGAibyZLjgl1AAln10p6e/v1yaXq5jeD1M/WQZybPmun/vJ5FmeabwKaxOmPjS1KzUSYAnCTUDnIztRs6QSv3/jDE68cxF/HXsXh//5b1iX38OhH+3G0kW38a8UhA/Xq5h0MCZQp24ivRS0VQRSqRROnDiRk0O0fv16pNPpHDktGiXiOVgq1DHpRhPUNtxzzz05yfawpytpGoWOpU5nQhMQUcDFf8XTtRM0BcOLFfNf7X58qSOfD1S82nP+/HkMDQ05HXyth7yZenwaSeFTRTRCSVBAwJ9FPhKTzy6VSuWcp1hqPfKO1Kk00/th4icYyrHlu34+YmXyLJtAPjC1V+FTtnSfaIrT1IemdqVGAixBuAkILFiE45H96HxkJ6pvvwuBBd9Ay32P4o1f9OAH97pHefxAicd8lVJ3d7dr9V6xUNBkKr20fv16nD59Gt3d3Y6OJkGJ0eoqRXWUSE0k51AwOTg46HyXEvzVUTJKtqcyKlBGFsgfATvxOB6PI5lMAko7RkZGnJc9BTRqZ6jaEaFQCLFYDN3d3U7bMrbkmIpfX3Kocy40qkB+1rUnGo06fqZkfXUxBPlKDUZXGcibAXCStmnECwCSyWTO6ritW7cinU5r7YpZ2KCDRlN5Mraa+2R6P0z8BB9ybKZ+MnmWTRgfH/cVkKkMDQ252tnT04PTp087CfWmPjS1KzXzLsDq6upy/bKxFOFoQp3T37RpE4aHhwsO/88UWTsZkc5tsaXMfjH5NT4T6PwszD223/8w4j/+Jf64ZR9+Hf4Japb4f+mpBINBHDlyBFBkpTZs2IADBw5op7OKwY/0EiWt6pKCoZHmomNxWSgdkUjEJbOlq8qt88eePXswPDzs8kc4HMbw8DC6u7uddqxbt86VWxWwJbtqa2sd+a/q6mq0tLSgvb3dFXhFIpEcybHNmzfnTIv48aWOfHJdKtzPJIGm+jkQCODgwYMIK/JmXV1dOHr0aM6xCsmbwfb9Cy+8AEupdZRKpRCLxVzHC4VCSCaTLrtEIoGxsTFnhVk+TOpgBYNBdHZ2YnBw0Ln+sKbiv8n9MPVT2FCOzdRPps9yPmjESQ3IqI8y6W+j0SiuXbvmtNOyLCSTSdffnIkP/diVknkllTOq1IzJ94fS39+PRCLh0hWcLfr7+5FKpVxyAPTLk/8xmmDqg1JjWRb27NmT0+GUGzeDVI4wN8nY9Z722pqqc5GsRq6r1O8c3TtRyKUc/GTZNebmQl9bSr4WqZz39v2m4Gcu4rX89OtmdHQUL730kqsOEOxfiVwORxCE+QGNWvORapoK0Y28zRUCGrmuYnNsaARFHW2n6WW++vNmplz9lLXrvfmZTpxvTCvAyp45gwVv/svzc/3tt/lXXNBUXb+tuk3DgLrkWHopkQ1/4Czry8rIIyMjaGpqcl5e6tQVne/pp592lpbTvLZuirCfST3w/TCQJbDyyG4MDAxg9erVOTWEQqEQNm7c6MzfQ/EVz6vw4ty5c87y7mUeshKFfOrXThCEwgQCAXR0dGB8fNxV3mJiYgJHjhyZ851RyJbrevbZZ9HW1oampqacBQUmhMNh9Pb2OlM2y2Zgenk+UK5+SiaTWLVq1Zxu40wzrQALAAK33obqFStzPosWL+KmnrS2tqKhoQFTtqQCWNJsxqBkP+U01NXV4eWXX9bmVASDQRw7dgzt7e2IRqO4cuWK5zRcF5N6oHwJNcjqMpAlgIfsRsajTg/R0NDgSqiltnu1lxOLxRx5DZ0ciIlP/dgJgmAO/T2rZSJ076y5SiQSQU9PD3p6ejxLJ5gQiURcPqD3o+CmHP0UiUSKfi7mC9MOsEpBe3u787AE7Wx/dXmmn5L9pWBUI/VAK3VoaTXZqKtOAhpZAoKvTvGqLEvQcDtf5muKKgkQtGUq+AooGPjU1E4QBEEQhK+YEwFWoRoUXjlTupL9pcArpyCiiCybyBIQutokXucgqG4HLyZnCg/c1CKM8OFTUzthdtCsUREEQRBmkBs3bhgtAixsMUtQ553VFECbaUyDGsq/8pIlyIfpOYqhsrLSM3CDnVNl4lNTO2H2WLJkCa5fv843C4IgCDPEK6+8ggceeIBvzmHOBlhEYI6U7OdYBrIE+eAjTKVkcnIy78iSqU9N7YTZY+fOndi3b1/e+y0IgiCUhtdffx1DQ0NoaWnhu3KYVh2sd364GZWLl2LxosV8Fz65/jE+XAB881iC73Kgui8tLS2ulQb9/f2uIn78/wQVFaUaG7p6LJamPhMlp1P9EN4O3XH4sc6cOePZpsHBQWe77vwwqB1TaL8X9L1YLObyKW+HqU9N7fjxy5Vyq4MF+56/+OKLmJqa4rsEQRCEErJ27Vrs3r27YHyEUgRYn3/k/VJfvGplSQIssqutrXWCIsuyHHV5+q7ueLqOv1CARTZqoEQ2Ybsar+78tK2urq5ggKU7p4rX9wpBARYA57u07bHHHnNWdfj1aSG7Yts71yjHAEsQBEGYe+SPoApwb/8fsOYvSc/P6r5D/CtFETQs2R8MBhEOh9Ha2ppTj8ovXlIPFKCEDWUJvKDVklzwlTh16pSrtkzGZx2s1tZW7Nixw6mZEovFXEtm/fjUxE4QBEEQhK+Y1giWMD28pgFHR0exd+9edHV1lfVoUDkiI1iCIAhCKZAIahYJ2bW1EomEaxRrYGAAGzdulOBKEARBEMoUCbBmmebmZsCWFYCdyzQxMYG2tjZmKQiCIAhCuSAB1iwTCARw8OBBJ58pHA6XlWSGIAiCIAi5SIAlCIIgCIJQYiTAEgRBEARBKDHaAKuyshIXLlzgmwVh3vPBBx9g+fLlfLMgCIIg+EIbYG3ZsgXPP/883ywI85pTp06hpqYGt9xyC98lCIIgCL7Q1sECgFdffRVHjx5FTU0NFi5cyHcLwrzi8uXLCAaD2L9/P98lCIIgCL7xDLCIS5cu4YsvvuCbBWFesWLFClRUVPDNgiAIglAUBQMsQRAEQRAEwR/aHCxBEARBEASheCTAEgRBEARBKDESYAmCIAiCIJSY/wNp/yVxTGD0iQAAAABJRU5ErkJggg==;" parent="1" vertex="1">
          <mxGeometry x="-157.59" y="300" width="465.17" height="345" as="geometry" />
        </mxCell>
        <mxCell id="p4BHS4yH1zhZslwrcmYX-1" style="edgeStyle=none;shape=connector;rounded=0;orthogonalLoop=1;jettySize=auto;html=1;strokeColor=default;align=center;verticalAlign=middle;fontFamily=Helvetica;fontSize=11;fontColor=default;labelBackgroundColor=default;endArrow=none;endFill=0;exitX=1;exitY=1;exitDx=0;exitDy=0;" edge="1" parent="1" source="eaopw1OA4tHI7iTekrfp-3">
          <mxGeometry relative="1" as="geometry">
            <mxPoint x="459" y="12" as="sourcePoint" />
            <mxPoint x="789" y="-110" as="targetPoint" />
            <Array as="points" />
          </mxGeometry>
        </mxCell>
        <mxCell id="p4BHS4yH1zhZslwrcmYX-2" style="edgeStyle=none;shape=connector;rounded=0;orthogonalLoop=1;jettySize=auto;html=1;strokeColor=default;align=center;verticalAlign=middle;fontFamily=Helvetica;fontSize=11;fontColor=default;labelBackgroundColor=default;endArrow=none;endFill=0;exitX=1;exitY=0;exitDx=0;exitDy=0;entryX=0.5;entryY=0.5;entryDx=0;entryDy=0;entryPerimeter=0;" edge="1" parent="1" target="eaopw1OA4tHI7iTekrfp-2">
          <mxGeometry relative="1" as="geometry">
            <mxPoint x="255" y="42" as="sourcePoint" />
            <mxPoint x="585" y="-80" as="targetPoint" />
            <Array as="points" />
          </mxGeometry>
        </mxCell>
        <mxCell id="p4BHS4yH1zhZslwrcmYX-3" value="" style="rounded=0;whiteSpace=wrap;html=1;fillColor=default;strokeColor=#F1F1F1;" vertex="1" parent="1">
          <mxGeometry x="-150" y="580" width="140" height="15" as="geometry" />
        </mxCell>
      </root>
    </mxGraphModel>
  </diagram>
</mxfile>
